<svg xmlns="http://www.w3.org/2000/svg" version="1.1" xmlns:xlink="http://www.w3.org/1999/xlink" xmlns:svgjs="http://svgjs.com/svgjs" width="900" height="2000" preserveAspectRatio="none" viewBox="0 0 900 2000"><g mask="url(&quot;#SvgjsMask1630&quot;)" fill="none"><rect width="900" height="2000" x="0" y="0" fill="url(#SvgjsLinearGradient1631)"></rect><path d="M865.18 1819.97L903.25 1819.97L903.25 1847.67L865.18 1847.67z" stroke="rgba(14, 146, 153, 1)"></path><path d="M442.43 689.59L511.18 689.59L511.18 761.82L442.43 761.82z" fill="rgba(150, 97, 107, 1)"></path><path d="M843.32 648.03L909.3 648.03L909.3 714.01L843.32 714.01z" stroke="rgba(150, 97, 107, 1)"></path><path d="M542.62 1282.19 a25.08 25.08 0 1 0 50.16 0 a25.08 25.08 0 1 0 -50.16 0z" stroke="rgba(55, 80, 92, 1)"></path><path d="M181.78 923.86L193.2 923.86L193.2 935.28L181.78 935.28z" fill="rgba(55, 80, 92, 1)"></path><path d="M107.54 1576.14L190.65 1576.14L190.65 1659.25L107.54 1659.25z" stroke="rgba(150, 97, 107, 1)"></path><path d="M-19.18 2016.96a52.11 52.11 0 1 0 41.52-95.6z" stroke="rgba(55, 80, 92, 1)"></path><path d="M232.19 722.97a76.22 76.22 0 1 0-60.91-139.74z" stroke="rgba(55, 80, 92, 1)"></path><path d="M17.08 1220.63L26.89 1220.63L26.89 1230.44L17.08 1230.44z" stroke="rgba(150, 97, 107, 1)"></path><path d="M331.01 327.48L342 327.48L342 381.4L331.01 381.4z" fill="rgba(14, 146, 153, 1)"></path><path d="M847.31 1920.88L875.87 1920.88L875.87 1949.44L847.31 1949.44z" stroke="rgba(150, 97, 107, 1)"></path><path d="M611.84 1118.8L680.67 1118.8L680.67 1187.63L611.84 1187.63z" stroke="rgba(55, 80, 92, 1)"></path><path d="M72.94 188.5 a13.21 13.21 0 1 0 26.42 0 a13.21 13.21 0 1 0 -26.42 0z" fill="rgba(150, 97, 107, 1)"></path><path d="M703.28 280L775.61 280L775.61 306.14L703.28 306.14z" stroke="rgba(14, 146, 153, 1)"></path><path d="M188.02 442.5L223.99 442.5L223.99 519.16L188.02 519.16z" fill="rgba(55, 80, 92, 1)"></path><path d="M294.11 956.57L301.47 956.57L301.47 963.93L294.11 963.93z" fill="rgba(55, 80, 92, 1)"></path><path d="M445.13 906.14 a20.78 20.78 0 1 0 41.56 0 a20.78 20.78 0 1 0 -41.56 0z" fill="rgba(150, 97, 107, 1)"></path><path d="M502.76 1321.83L507.24 1321.83L507.24 1326.31L502.76 1326.31z" stroke="rgba(150, 97, 107, 1)"></path><path d="M577.54 1203.98a22.29 22.29 0 1 0-23.59-37.83z" stroke="rgba(150, 97, 107, 1)"></path><path d="M477.16 1762.21 a74.07 74.07 0 1 0 148.14 0 a74.07 74.07 0 1 0 -148.14 0z" fill="rgba(55, 80, 92, 1)"></path><path d="M358.38 1093.95a26.16 26.16 0 1 0-43.49-29.09z" stroke="rgba(150, 97, 107, 1)"></path><path d="M350.51 1157.98L366.28 1157.98L366.28 1226.03L350.51 1226.03z" stroke="rgba(14, 146, 153, 1)"></path><path d="M494.12 844.65a88.1 88.1 0 1 0-155.06 83.69z" fill="rgba(14, 146, 153, 1)"></path><path d="M638.86 1316.7L653.2 1316.7L653.2 1400.09L638.86 1400.09z" stroke="rgba(55, 80, 92, 1)"></path><path d="M38.48 484.78L111.87 484.78L111.87 564.2L38.48 564.2z" stroke="rgba(14, 146, 153, 1)"></path><path d="M676.58 1986.21L714.44 1986.21L714.44 2064.72L676.58 2064.72z" stroke="rgba(14, 146, 153, 1)"></path><path d="M283.36 737.99a26.35 26.35 0 1 0-36.9-37.63z" stroke="rgba(14, 146, 153, 1)"></path><path d="M791.91 1485.36a8.27 8.27 0 1 0 16.54 0.2z" stroke="rgba(55, 80, 92, 1)"></path></g><defs><mask id="SvgjsMask1630"><rect width="900" height="2000" fill="#ffffff"></rect></mask><linearGradient x1="130.56%" y1="86.25%" x2="-30.56%" y2="13.75%" gradientUnits="userSpaceOnUse" id="SvgjsLinearGradient1631"><stop stop-color="rgba(33, 255, 205, 1)" offset="0"></stop><stop stop-color="rgba(188, 255, 213, 1)" offset="1"></stop></linearGradient></defs></svg>