<svg xmlns="http://www.w3.org/2000/svg" version="1.1" xmlns:xlink="http://www.w3.org/1999/xlink" xmlns:svgjs="http://svgjs.com/svgjs" width="1920" height="1000" preserveAspectRatio="none" viewBox="0 0 1920 1000"><g mask="url(&quot;#SvgjsMask1048&quot;)" fill="none"><rect width="1920" height="1000" x="0" y="0" fill="rgba(231, 255, 132, 1)"></rect><path d="M1586.4254497868683 889.9871785381313L1542.326290119965 574.0207251594096 1319.60156805708 741.8558415279157z" fill="rgba(28, 83, 142, 0.4)" class="triangle-float1"></path><path d="M746.672,1119.35C798.361,1121.892,849.607,1100.746,877.488,1057.148C907.59,1010.077,915.017,948.935,886.302,901.005C858.235,854.157,801.281,838.231,746.672,838.795C693.227,839.347,637.125,856.691,611.947,903.837C587.788,949.075,609.211,1001.802,636.396,1045.289C661.553,1085.531,699.271,1117.018,746.672,1119.35" fill="rgba(28, 83, 142, 0.4)" class="triangle-float2"></path><path d="M1125.444,1112.986C1224.763,1115.264,1319.094,1064.843,1369.107,979.005C1419.453,892.596,1414.153,787.072,1366.596,699.097C1316.386,606.216,1230.968,531.831,1125.444,528.26C1014.18,524.495,904.959,582.644,854.264,681.76C807.055,774.061,845.211,880.493,900.401,968.255C951.289,1049.176,1029.877,1110.794,1125.444,1112.986" fill="rgba(28, 83, 142, 0.4)" class="triangle-float2"></path><path d="M623.8051660788022 659.484418853458L906.9929481616749 719.6778401199527 967.1863694281697 436.49005803708 683.998587345297 376.29663677058534z" fill="rgba(28, 83, 142, 0.4)" class="triangle-float3"></path><path d="M1512.4004672685855 1058.1101290765687L1618.541061283184 1109.878355747227 1643.1231042818722 924.78335139z" fill="rgba(28, 83, 142, 0.4)" class="triangle-float2"></path><path d="M733.7192791635825 320.7175676293564L683.0679502107402 144.07539143947696 506.42577402086073 194.72672039231935 557.0771029737032 371.3688965821988z" fill="rgba(28, 83, 142, 0.4)" class="triangle-float2"></path><path d="M361.374384055264 291.50579332701193L481.3252175666946 429.4934426183888 619.3128668580716 309.5426091069582 499.36203334664094 171.5549598155813z" fill="rgba(28, 83, 142, 0.4)" class="triangle-float3"></path></g><defs><mask id="SvgjsMask1048"><rect width="1920" height="1000" fill="#ffffff"></rect></mask><style>
            @keyframes float1 {
                0%{transform: translate(0, 0)}
                50%{transform: translate(-10px, 0)}
                100%{transform: translate(0, 0)}
            }

            .triangle-float1 {
                animation: float1 5s infinite;
            }

            @keyframes float2 {
                0%{transform: translate(0, 0)}
                50%{transform: translate(-5px, -5px)}
                100%{transform: translate(0, 0)}
            }

            .triangle-float2 {
                animation: float2 4s infinite;
            }

            @keyframes float3 {
                0%{transform: translate(0, 0)}
                50%{transform: translate(0, -10px)}
                100%{transform: translate(0, 0)}
            }

            .triangle-float3 {
                animation: float3 6s infinite;
            }
        </style></defs></svg>