<svg xmlns="http://www.w3.org/2000/svg" width="1920" height="1000" preserveAspectRatio="none"><g mask="url(&quot;#SvgjsMask1048&quot;)" fill="none"><path fill="rgba(231, 255, 132, 1)" d="M0 0h1920v1000H0z"/><path d="m1586.425 889.987-44.099-315.966-222.724 167.835z" fill="rgba(28, 83, 142, 0.4)" style="animation:float1 5s infinite"/><path d="M746.672 1119.35c51.689 2.542 102.935-18.604 130.816-62.202 30.102-47.071 37.529-108.213 8.814-156.143-28.067-46.848-85.021-62.774-139.63-62.21-53.445.552-109.547 17.896-134.725 65.042-24.159 45.238-2.736 97.965 24.449 141.452 25.157 40.242 62.875 71.729 110.276 74.061" fill="rgba(28, 83, 142, 0.4)" class="triangle-float2"/><path d="M1125.444 1112.986c99.319 2.278 193.65-48.143 243.663-133.981 50.346-86.409 45.046-191.933-2.511-279.908-50.21-92.881-135.628-167.266-241.152-170.837-111.264-3.765-220.485 54.384-271.18 153.5-47.209 92.301-9.053 198.733 46.137 286.495 50.888 80.921 129.476 142.539 225.043 144.731" fill="rgba(28, 83, 142, 0.4)" class="triangle-float2"/><path d="m623.805 659.484 283.188 60.194 60.193-283.188L684 376.297z" fill="rgba(28, 83, 142, 0.4)" class="triangle-float3"/><path d="m1512.4 1058.11 106.141 51.768 24.582-185.095zM733.72 320.718l-50.652-176.643-176.642 50.652 50.651 176.642z" fill="rgba(28, 83, 142, 0.4)" class="triangle-float2"/><path d="m361.374 291.506 119.951 137.987 137.988-119.95-119.951-137.988z" fill="rgba(28, 83, 142, 0.4)" class="triangle-float3"/></g><defs><style>@keyframes float1{0%,to{transform:translate(0,0)}50%{transform:translate(-10px,0)}}@keyframes float2{0%,to{transform:translate(0,0)}50%{transform:translate(-5px,-5px)}}@keyframes float3{0%,to{transform:translate(0,0)}50%{transform:translate(0,-10px)}}.triangle-float2{animation:float2 4s infinite}.triangle-float3{animation:float3 6s infinite}</style><mask id="SvgjsMask1048"><path fill="#fff" d="M0 0h1920v1000H0z"/></mask></defs></svg>