<svg id="visual" viewBox="0 0 900 450" width="900" height="450" xmlns="http://www.w3.org/2000/svg" xmlns:xlink="http://www.w3.org/1999/xlink" version="1.1"><rect x="0" y="0" width="900" height="450" fill="#001220"></rect><defs><linearGradient id="grad1_0" x1="50%" y1="0%" x2="100%" y2="100%"><stop offset="10%" stop-color="#fbae3c" stop-opacity="1"></stop><stop offset="90%" stop-color="#fbae3c" stop-opacity="1"></stop></linearGradient></defs><defs><linearGradient id="grad1_1" x1="50%" y1="0%" x2="100%" y2="100%"><stop offset="10%" stop-color="#fbae3c" stop-opacity="1"></stop><stop offset="90%" stop-color="#cc5867" stop-opacity="1"></stop></linearGradient></defs><defs><linearGradient id="grad1_2" x1="50%" y1="0%" x2="100%" y2="100%"><stop offset="10%" stop-color="#593762" stop-opacity="1"></stop><stop offset="90%" stop-color="#cc5867" stop-opacity="1"></stop></linearGradient></defs><defs><linearGradient id="grad1_3" x1="50%" y1="0%" x2="100%" y2="100%"><stop offset="10%" stop-color="#593762" stop-opacity="1"></stop><stop offset="90%" stop-color="#001220" stop-opacity="1"></stop></linearGradient></defs><defs><linearGradient id="grad2_0" x1="0%" y1="0%" x2="50%" y2="100%"><stop offset="10%" stop-color="#fbae3c" stop-opacity="1"></stop><stop offset="90%" stop-color="#fbae3c" stop-opacity="1"></stop></linearGradient></defs><defs><linearGradient id="grad2_1" x1="0%" y1="0%" x2="50%" y2="100%"><stop offset="10%" stop-color="#cc5867" stop-opacity="1"></stop><stop offset="90%" stop-color="#fbae3c" stop-opacity="1"></stop></linearGradient></defs><defs><linearGradient id="grad2_2" x1="0%" y1="0%" x2="50%" y2="100%"><stop offset="10%" stop-color="#cc5867" stop-opacity="1"></stop><stop offset="90%" stop-color="#593762" stop-opacity="1"></stop></linearGradient></defs><defs><linearGradient id="grad2_3" x1="0%" y1="0%" x2="50%" y2="100%"><stop offset="10%" stop-color="#001220" stop-opacity="1"></stop><stop offset="90%" stop-color="#593762" stop-opacity="1"></stop></linearGradient></defs><g transform="translate(900, 0)"><path d="M0 315C-41.8 311.9 -83.5 308.8 -120.5 291C-157.6 273.3 -189.9 240.9 -205.8 205.8C-221.6 170.6 -221 132.7 -236.5 98C-252 63.2 -283.5 31.6 -315 0L0 0Z" fill="#232745"></path><path d="M0 236.3C-31.3 233.9 -62.6 231.6 -90.4 218.3C-118.2 205 -142.4 180.7 -154.3 154.3C-166.2 128 -165.8 99.5 -177.4 73.5C-189 47.4 -212.6 23.7 -236.2 0L0 0Z" fill="#96446e"></path><path d="M0 157.5C-20.9 155.9 -41.8 154.4 -60.3 145.5C-78.8 136.6 -95 120.5 -102.9 102.9C-110.8 85.3 -110.5 66.4 -118.3 49C-126 31.6 -141.7 15.8 -157.5 0L0 0Z" fill="#f17c53"></path><path d="M0 78.8C-10.4 78 -20.9 77.2 -30.1 72.8C-39.4 68.3 -47.5 60.2 -51.4 51.4C-55.4 42.7 -55.3 33.2 -59.1 24.5C-63 15.8 -70.9 7.9 -78.7 0L0 0Z" fill="#fbae3c"></path></g><g transform="translate(0, 450)"><path d="M0 -315C31.8 -290.7 63.5 -266.5 106 -255.9C148.5 -245.3 201.6 -248.4 222.7 -222.7C243.9 -197 232.9 -142.6 243 -100.6C253 -58.7 284 -29.4 315 0L0 0Z" fill="#232745"></path><path d="M0 -236.2C23.8 -218.1 47.7 -199.9 79.5 -191.9C111.3 -184 151.2 -186.3 167.1 -167.1C182.9 -147.8 174.7 -106.9 182.2 -75.5C189.8 -44 213 -22 236.3 0L0 0Z" fill="#96446e"></path><path d="M0 -157.5C15.9 -145.4 31.8 -133.2 53 -128C74.2 -122.7 100.8 -124.2 111.4 -111.4C121.9 -98.5 116.5 -71.3 121.5 -50.3C126.5 -29.4 142 -14.7 157.5 0L0 0Z" fill="#f17c53"></path><path d="M0 -78.7C7.9 -72.7 15.9 -66.6 26.5 -64C37.1 -61.3 50.4 -62.1 55.7 -55.7C61 -49.3 58.2 -35.6 60.7 -25.2C63.3 -14.7 71 -7.3 78.8 0L0 0Z" fill="#fbae3c"></path></g></svg>