<svg id="visual" viewBox="0 0 900 450" width="900" height="450" xmlns="http://www.w3.org/2000/svg" xmlns:xlink="http://www.w3.org/1999/xlink" version="1.1"><rect x="0" y="0" width="900" height="450" fill="#fdecb8"></rect><defs><linearGradient id="grad1_0" x1="50%" y1="0%" x2="100%" y2="100%"><stop offset="10%" stop-color="#f2994a" stop-opacity="1"></stop><stop offset="90%" stop-color="#f2994a" stop-opacity="1"></stop></linearGradient></defs><defs><linearGradient id="grad1_1" x1="50%" y1="0%" x2="100%" y2="100%"><stop offset="10%" stop-color="#f2994a" stop-opacity="1"></stop><stop offset="90%" stop-color="#f4b76a" stop-opacity="1"></stop></linearGradient></defs><defs><linearGradient id="grad1_2" x1="50%" y1="0%" x2="100%" y2="100%"><stop offset="10%" stop-color="#f7d28f" stop-opacity="1"></stop><stop offset="90%" stop-color="#f4b76a" stop-opacity="1"></stop></linearGradient></defs><defs><linearGradient id="grad1_3" x1="50%" y1="0%" x2="100%" y2="100%"><stop offset="10%" stop-color="#f7d28f" stop-opacity="1"></stop><stop offset="90%" stop-color="#fdecb8" stop-opacity="1"></stop></linearGradient></defs><defs><linearGradient id="grad2_0" x1="0%" y1="0%" x2="50%" y2="100%"><stop offset="10%" stop-color="#f2994a" stop-opacity="1"></stop><stop offset="90%" stop-color="#f2994a" stop-opacity="1"></stop></linearGradient></defs><defs><linearGradient id="grad2_1" x1="0%" y1="0%" x2="50%" y2="100%"><stop offset="10%" stop-color="#f4b76a" stop-opacity="1"></stop><stop offset="90%" stop-color="#f2994a" stop-opacity="1"></stop></linearGradient></defs><defs><linearGradient id="grad2_2" x1="0%" y1="0%" x2="50%" y2="100%"><stop offset="10%" stop-color="#f4b76a" stop-opacity="1"></stop><stop offset="90%" stop-color="#f7d28f" stop-opacity="1"></stop></linearGradient></defs><defs><linearGradient id="grad2_3" x1="0%" y1="0%" x2="50%" y2="100%"><stop offset="10%" stop-color="#fdecb8" stop-opacity="1"></stop><stop offset="90%" stop-color="#f7d28f" stop-opacity="1"></stop></linearGradient></defs><g transform="translate(900, 0)"><path d="M0 405C-47.1 377.8 -94.1 350.6 -135.1 326.1C-176.1 301.6 -211 279.8 -253.9 253.9C-296.7 227.9 -347.6 198 -374.2 155C-400.7 112 -402.8 56 -405 0L0 0Z" fill="#fadfa3"></path><path d="M0 303.8C-35.3 283.4 -70.6 263 -101.3 244.6C-132 226.2 -158.2 209.8 -190.4 190.4C-222.6 171 -260.7 148.5 -280.6 116.2C-300.5 84 -302.1 42 -303.7 0L0 0Z" fill="#f5c57c"></path><path d="M0 202.5C-23.5 188.9 -47.1 175.3 -67.5 163.1C-88 150.8 -105.5 139.9 -126.9 126.9C-148.4 114 -173.8 99 -187.1 77.5C-200.3 56 -201.4 28 -202.5 0L0 0Z" fill="#f3a859"></path><path d="M0 101.3C-11.8 94.5 -23.5 87.7 -33.8 81.5C-44 75.4 -52.7 69.9 -63.5 63.5C-74.2 57 -86.9 49.5 -93.5 38.7C-100.2 28 -100.7 14 -101.2 0L0 0Z" fill="#f2994a"></path></g><g transform="translate(0, 450)"><path d="M0 -405C42.5 -374.8 84.9 -344.7 136.6 -329.8C188.3 -315 249.2 -315.4 286.4 -286.4C323.6 -257.3 337.1 -198.8 352.9 -146.2C368.7 -93.5 386.9 -46.8 405 0L0 0Z" fill="#fadfa3"></path><path d="M0 -303.7C31.9 -281.1 63.7 -258.5 102.5 -247.4C141.2 -236.2 186.9 -236.6 214.8 -214.8C242.7 -193 252.8 -149.1 264.7 -109.6C276.6 -70.2 290.2 -35.1 303.8 0L0 0Z" fill="#f5c57c"></path><path d="M0 -202.5C21.2 -187.4 42.5 -172.3 68.3 -164.9C94.1 -157.5 124.6 -157.7 143.2 -143.2C161.8 -128.7 168.5 -99.4 176.5 -73.1C184.4 -46.8 193.4 -23.4 202.5 0L0 0Z" fill="#f3a859"></path><path d="M0 -101.2C10.6 -93.7 21.2 -86.2 34.2 -82.5C47.1 -78.7 62.3 -78.9 71.6 -71.6C80.9 -64.3 84.3 -49.7 88.2 -36.5C92.2 -23.4 96.7 -11.7 101.3 0L0 0Z" fill="#f2994a"></path></g></svg>