<svg id="visual" viewBox="0 0 1920 1080" width="1920" height="1080" xmlns="http://www.w3.org/2000/svg" xmlns:xlink="http://www.w3.org/1999/xlink" version="1.1"><rect x="0" y="0" width="1920" height="1080" fill="#ffaeae"></rect><defs><linearGradient id="grad1_0" x1="43.8%" y1="0%" x2="100%" y2="100%"><stop offset="14.444444444444446%" stop-color="#ff8686" stop-opacity="1"></stop><stop offset="85.55555555555554%" stop-color="#ff8686" stop-opacity="1"></stop></linearGradient></defs><defs><linearGradient id="grad1_1" x1="43.8%" y1="0%" x2="100%" y2="100%"><stop offset="14.444444444444446%" stop-color="#ff8686" stop-opacity="1"></stop><stop offset="85.55555555555554%" stop-color="#ff9a9a" stop-opacity="1"></stop></linearGradient></defs><defs><linearGradient id="grad1_2" x1="43.8%" y1="0%" x2="100%" y2="100%"><stop offset="14.444444444444446%" stop-color="#ffaeae" stop-opacity="1"></stop><stop offset="85.55555555555554%" stop-color="#ff9a9a" stop-opacity="1"></stop></linearGradient></defs><defs><linearGradient id="grad2_0" x1="0%" y1="0%" x2="56.3%" y2="100%"><stop offset="14.444444444444446%" stop-color="#ff8686" stop-opacity="1"></stop><stop offset="85.55555555555554%" stop-color="#ff8686" stop-opacity="1"></stop></linearGradient></defs><defs><linearGradient id="grad2_1" x1="0%" y1="0%" x2="56.3%" y2="100%"><stop offset="14.444444444444446%" stop-color="#ff9a9a" stop-opacity="1"></stop><stop offset="85.55555555555554%" stop-color="#ff8686" stop-opacity="1"></stop></linearGradient></defs><defs><linearGradient id="grad2_2" x1="0%" y1="0%" x2="56.3%" y2="100%"><stop offset="14.444444444444446%" stop-color="#ff9a9a" stop-opacity="1"></stop><stop offset="85.55555555555554%" stop-color="#ffaeae" stop-opacity="1"></stop></linearGradient></defs><g transform="translate(1920, 0)"><path d="M0 972C-120.9 931.2 -241.8 890.4 -345.9 835.2C-450.1 780 -537.5 710.3 -635 635C-732.5 559.7 -840.2 478.7 -898 372C-955.9 265.2 -963.9 132.6 -972 0L0 0Z" fill="#ffa4a4"></path><path d="M0 648C-80.6 620.8 -161.2 593.6 -230.6 556.8C-300.1 520 -358.3 473.5 -423.3 423.3C-488.3 373.1 -560.1 319.2 -598.7 248C-637.2 176.8 -642.6 88.4 -648 0L0 0Z" fill="#ff9090"></path><path d="M0 324C-40.3 310.4 -80.6 296.8 -115.3 278.4C-150 260 -179.2 236.8 -211.7 211.7C-244.2 186.6 -280.1 159.6 -299.3 124C-318.6 88.4 -321.3 44.2 -324 0L0 0Z" fill="#ff8686"></path></g><g transform="translate(0, 1080)"><path d="M0 -972C116.3 -938 232.5 -904.1 358.2 -864.8C483.9 -825.4 619 -780.8 687.3 -687.3C755.7 -593.8 757.3 -451.4 793.6 -328.7C829.9 -206 901 -103 972 0L0 0Z" fill="#ffa4a4"></path><path d="M0 -648C77.5 -625.4 155 -602.7 238.8 -576.5C322.6 -550.3 412.6 -520.5 458.2 -458.2C503.8 -395.9 504.9 -300.9 529.1 -219.2C553.3 -137.4 600.6 -68.7 648 0L0 0Z" fill="#ff9090"></path><path d="M0 -324C38.8 -312.7 77.5 -301.4 119.4 -288.3C161.3 -275.1 206.3 -260.3 229.1 -229.1C251.9 -197.9 252.4 -150.5 264.5 -109.6C276.6 -68.7 300.3 -34.3 324 0L0 0Z" fill="#ff8686"></path></g></svg>