<svg xmlns="http://www.w3.org/2000/svg" version="1.1" xmlns:xlink="http://www.w3.org/1999/xlink" xmlns:svgjs="http://svgjs.com/svgjs" width="1440" height="560" preserveAspectRatio="none" viewBox="0 0 1440 560"><g mask="url(&quot;#SvgjsMask1022&quot;)" fill="none"><rect width="1440" height="560" x="0" y="0" fill="rgba(227, 228, 219, 1)"></rect><rect width="252" height="252" clip-path="url(&quot;#SvgjsClipPath1023&quot;)" x="478.12" y="432.1" fill="url(#SvgjsPattern1024)" transform="rotate(62.61, 604.12, 558.1)"></rect><rect width="105.2" height="105.2" clip-path="url(&quot;#SvgjsClipPath1025&quot;)" x="1294.41" y="489.97" fill="url(#SvgjsPattern1026)" transform="rotate(236.95, 1347.01, 542.57)"></rect><rect width="126" height="126" clip-path="url(&quot;#SvgjsClipPath1027&quot;)" x="839.1" y="459.8" fill="url(#SvgjsPattern1028)" transform="rotate(336.84, 902.1, 522.8)"></rect><circle r="46.666666666666664" cx="667.33" cy="192.01" fill="#037b0b"></circle><circle r="48.632095776592095" cx="454.88" cy="271.09" stroke="#037b0b" stroke-width="1.26" stroke-dasharray="3, 3"></circle><circle r="71.95395795325979" cx="390.82" cy="422.22" fill="#e73635"></circle><path d="M1402.09 154.43a5.6 5.6 0 1 0-2.12-11 5.6 5.6 0 1 0 2.12 11zM1399.06 138.72a5.6 5.6 0 1 0-2.12-11 5.6 5.6 0 1 0 2.12 11zM1396.03 123.01a5.6 5.6 0 1 0-2.13-11 5.6 5.6 0 1 0 2.13 11zM1392.99 107.3a5.6 5.6 0 1 0-2.12-11 5.6 5.6 0 1 0 2.12 11z" fill="#d3b714"></path><path d="M698.88 305.14 L757.5999999999999 272.97L697.2134914714222 258.0284914714222z" fill="#e73635"></path><path d="M1299.12 394.29L1295.57 381.98 1306.79 375.82 1303.24 363.51 1314.47 357.35 1310.92 345.04 1322.15 338.88M1306.5 397.36L1302.95 385.05 1314.18 378.89 1310.63 366.58 1321.86 360.42 1318.31 348.11 1329.53 341.95M1313.89 400.43L1310.34 388.12 1321.57 381.96 1318.02 369.65 1329.24 363.49 1325.69 351.19 1336.92 345.02" stroke="#037b0b" stroke-width="2.43" stroke-dasharray="4, 4"></path><rect width="271.03999999999996" height="271.03999999999996" clip-path="url(&quot;#SvgjsClipPath1029&quot;)" x="766.07" y="-38.43" fill="url(#SvgjsPattern1030)" transform="rotate(259.56, 901.59, 97.09)"></rect><rect width="118.8" height="118.8" clip-path="url(&quot;#SvgjsClipPath1031&quot;)" x="575.89" y="70.53" fill="url(#SvgjsPattern1032)" transform="rotate(70.63, 635.29, 129.93)"></rect><path d="M1126.41 270.17L1124.96 257.44 1137.05 253.23 1135.59 240.51 1147.69 236.29 1146.23 223.57 1158.32 219.35M1133.19 274.42L1131.73 261.7 1143.83 257.48 1142.37 244.76 1154.46 240.55 1153.01 227.82 1165.1 223.61" stroke="#037b0b" stroke-width="2.57" stroke-dasharray="2, 2"></path></g><defs><mask id="SvgjsMask1022"><rect width="1440" height="560" fill="#ffffff"></rect></mask><pattern x="0" y="0" width="6" height="6" patternUnits="userSpaceOnUse" id="SvgjsPattern1024"><path d="M3 1L3 5M1 3L5 3" stroke="#d3b714" fill="none" stroke-width="1.27"></path></pattern><clipPath id="SvgjsClipPath1023"><circle r="63" cx="604.12" cy="558.1"></circle></clipPath><pattern x="0" y="0" width="10.52" height="10.52" patternUnits="userSpaceOnUse" id="SvgjsPattern1026"><path d="M5.26 1L5.26 9.52M1 5.26L9.52 5.26" stroke="#d3b714" fill="none" stroke-width="1"></path></pattern><clipPath id="SvgjsClipPath1025"><circle r="26.3" cx="1347.01" cy="542.57"></circle></clipPath><pattern x="0" y="0" width="126" height="12.6" patternUnits="userSpaceOnUse" id="SvgjsPattern1028"><rect width="126" height="6.3" x="0" y="0" fill="#d3b714"></rect><rect width="126" height="6.3" x="0" y="6.3" fill="rgba(0, 0, 0, 0)"></rect></pattern><clipPath id="SvgjsClipPath1027"><circle r="31.5" cx="902.1" cy="522.8"></circle></clipPath><pattern x="0" y="0" width="9.68" height="9.68" patternUnits="userSpaceOnUse" id="SvgjsPattern1030"><path d="M0 9.68L4.84 0L9.68 9.68" stroke="#e73635" fill="none"></path></pattern><clipPath id="SvgjsClipPath1029"><circle r="67.75999999999999" cx="901.59" cy="97.09"></circle></clipPath><pattern x="0" y="0" width="11.88" height="11.88" patternUnits="userSpaceOnUse" id="SvgjsPattern1032"><path d="M5.94 1L5.94 10.88M1 5.94L10.88 5.94" stroke="#e73635" fill="none" stroke-width="4.5"></path></pattern><clipPath id="SvgjsClipPath1031"><circle r="29.7" cx="635.29" cy="129.93"></circle></clipPath></defs></svg>