<svg xmlns="http://www.w3.org/2000/svg" version="1.1" xmlns:xlink="http://www.w3.org/1999/xlink" xmlns:svgjs="http://svgjs.com/svgjs" width="1920" height="1080" preserveAspectRatio="none" viewBox="0 0 1920 1080"><g mask="url(&quot;#SvgjsMask1595&quot;)" fill="none"><rect width="1920" height="1080" x="0" y="0" fill="url(#SvgjsLinearGradient1596)"></rect><path d="M1350 201.06C1303.81 201.06 1251.82 226.06 1251.82 270C1251.82 335.88 1306.36 420.7 1350 420.7C1390.29 420.7 1419.68 339.05 1419.68 270C1419.68 229.23 1387.74 201.06 1350 201.06" stroke="rgba(224, 0, 252, 0.58)" stroke-width="2"></path><path d="M1080 441.82C1021.35 441.82 970.17 487.64 970.17 540C970.17 599.04 1020.17 664.62 1080 664.62C1150.43 664.62 1230.7 598.03 1230.7 540C1230.7 486.63 1151.61 441.82 1080 441.82" stroke="rgba(224, 0, 252, 0.58)" stroke-width="2"></path><path d="M1620 518.4C1590.33 518.4 1565.86 510.84 1555.2 540C1512.57 656.64 1491.13 695.37 1513.42 810C1523.53 862.01 1565.37 873.28 1620 873.28C1683.98 873.28 1747.29 865.37 1750.65 810C1757.41 698.73 1699.56 672.36 1640.25 540C1634.23 526.56 1632.86 518.4 1620 518.4" stroke="rgba(224, 0, 252, 0.58)" stroke-width="2"></path><path d="M46.96 270C158.66 212.05 171.77 153.41 270 153.41C326.77 153.41 356.95 211.7 356.95 270C356.95 328.29 311.49 326.91 270 386.59C217.64 461.91 193 454.43 169.25 540C134.24 666.13 171.71 676.55 152.47 810C132.78 946.55 148.7 978.5 91.38 1080C72.46 1113.5 11.55 1114.14 0 1080C-34.14 979.14 0 945 0 810C0 675 0 675 0 540C0 416.74 -19.36 404.78 0 293.48C4.12 269.78 23.66 282.09 46.96 270" stroke="rgba(224, 0, 252, 0.58)" stroke-width="2"></path><path d="M540 115.71C455.16 83.58 392.73 32.39 392.73 0C392.73 -25.47 466.37 0 540 0C675 0 675 0 810 0C877.5 0 945 -31.12 945 0C945 47.91 897.48 133.06 810 158.05C694.98 190.91 663.8 162.6 540 115.71" stroke="rgba(224, 0, 252, 0.58)" stroke-width="2"></path><path d="M945 270C945 221.36 1021.61 158.05 1080 158.05C1123.88 158.05 1149.55 218.03 1149.55 270C1149.55 308.78 1120.2 339.55 1080 339.55C1017.93 339.55 945 312.11 945 270" stroke="rgba(224, 0, 252, 0.58)" stroke-width="2"></path><path d="M1350 129.26C1266.93 58.8 1173.91 35.78 1173.91 0C1173.91 -28.85 1261.95 0 1350 0C1446.43 0 1456.89 -24.96 1542.86 0C1591.89 14.23 1569.78 68.31 1620 78.39C1743.35 103.15 1786.92 17.83 1890 69.68C1977.37 113.63 1948.78 168.12 2000.89 270C2069.06 403.28 2156.87 421.79 2130.55 540C2101.42 670.84 1999.71 768.1 1890 768.1C1796.75 768.1 1812.12 650.08 1724.63 540C1677.12 480.23 1669.86 486.34 1620 428.4C1553.68 351.34 1560.32 345.41 1492.26 270C1425.32 195.84 1426.1 193.8 1350 129.26" stroke="rgba(224, 0, 252, 0.58)" stroke-width="2"></path><path d="M732.86 540C779.35 498.05 777.15 440 810 440C838.6 440 855.76 486.99 855.76 540C855.76 671.99 832.88 675 810 810C810 810 810 810 810 810C675 890.27 655.6 970.54 540 970.54C470.26 970.54 439.32 887.43 439.32 810C439.32 743.97 481.01 737.88 540 683.62C627.78 602.88 644.35 619.86 732.86 540" stroke="rgba(224, 0, 252, 0.58)" stroke-width="2"></path><path d="M810 810C845.93 741.74 945.15 794.42 1080 794.42C1161.15 794.42 1161.44 799.15 1242 810C1296.44 817.33 1300.26 808.56 1350 830.77C1489.26 892.94 1477.42 953.68 1620 978.75C1747.42 1001.15 1786.19 894.2 1890 925.71C1952.95 944.82 1953.53 1024.13 1953.53 1080C1953.53 1101.27 1921.76 1080 1890 1080C1755 1080 1755 1080 1620 1080C1485 1080 1485 1080 1350 1080C1215 1080 1215 1080 1080 1080C1004.83 1080 975.2 1125.54 929.66 1080C840.2 990.54 770.76 884.53 810 810" stroke="rgba(224, 0, 252, 0.58)" stroke-width="2"></path><path d="M540 19.29C524.84 19.29 515.45 5.4 515.45 0C515.45 -4.25 527.72 0 540 0C652.5 0 765 -4.81 765 0C765 4.83 649.62 19.29 540 19.29" stroke="rgba(224, 0, 252, 0.58)" stroke-width="2"></path><path d="M1350 57.45C1310.26 57.45 1271.74 15.9 1271.74 0C1271.74 -12.82 1310.87 0 1350 0C1392.86 0 1435.71 -13.03 1435.71 0C1435.71 15.69 1392.24 57.45 1350 57.45" stroke="rgba(224, 0, 252, 0.58)" stroke-width="2"></path><path d="M1564.84 270C1564.84 229.88 1578.34 187.26 1620 187.26C1728.06 187.26 1864.29 231.9 1864.29 270C1864.29 307.47 1731.21 338.4 1620 338.4C1581.48 338.4 1564.84 305.45 1564.84 270" stroke="rgba(224, 0, 252, 0.58)" stroke-width="2"></path><path d="M0 440.22C18.78 440.22 57.2 482.78 68.51 540C93.73 667.67 90.86 677.83 73.06 810C56.6 932.25 18.67 1048.85 0 1048.85C-17.86 1048.85 0 929.42 0 810C0 675 0 675 0 540C0 490.11 -15.48 440.22 0 440.22" stroke="rgba(224, 0, 252, 0.58)" stroke-width="2"></path><path d="M1809 540C1809 421.78 1841.55 290.77 1890 290.77C1940.96 290.77 2007.82 426.42 2007.82 540C2007.82 606.9 1943.74 651.72 1890 651.72C1844.33 651.72 1809 602.25 1809 540" stroke="rgba(224, 0, 252, 0.58)" stroke-width="2"></path><path d="M1006.36 1080C1006.36 1031.86 1021.73 939.13 1080 939.13C1188.15 939.13 1339.2 1042.51 1339.2 1080C1339.2 1112.94 1209.6 1080 1080 1080C1043.18 1080 1006.36 1102.3 1006.36 1080" stroke="rgba(224, 0, 252, 0.58)" stroke-width="2"></path></g><defs><mask id="SvgjsMask1595"><rect width="1920" height="1080" fill="#ffffff"></rect></mask><linearGradient x1="10.94%" y1="-19.44%" x2="89.06%" y2="119.44%" gradientUnits="userSpaceOnUse" id="SvgjsLinearGradient1596"><stop stop-color="rgba(150, 222, 157, 1)" offset="0"></stop><stop stop-color="rgba(188, 255, 231, 1)" offset="1"></stop></linearGradient></defs></svg>