<svg xmlns="http://www.w3.org/2000/svg" version="1.1" xmlns:xlink="http://www.w3.org/1999/xlink" xmlns:svgjs="http://svgjs.com/svgjs" width="1920" height="1080" preserveAspectRatio="none" viewBox="0 0 1920 1080"><g mask="url(&quot;#SvgjsMask1028&quot;)" fill="none"><rect width="1920" height="1080" x="0" y="0" fill="rgba(241, 222, 201, 1)"></rect><path d="M75 1167.29C313.56 1085.67 353.91 402.1 709.91 383.68 1065.9 365.26 1027.36 518.68 1344.81 518.68 1662.27 518.68 1817.45 384.42 1979.72 383.68" stroke="rgba(141, 123, 104, 0.58)" stroke-width="2"></path><path d="M382.55 1158.51C642.28 1133.4 759.5 613.28 1253.84 583.78 1748.17 554.28 1888.86 223.98 2125.12 216.58" stroke="rgba(141, 123, 104, 0.58)" stroke-width="2"></path><path d="M939.82 1229.49C1138.54 1103.05 1039.93 402.84 1386.29 399.86 1732.65 396.88 2026.77 860.57 2279.23 875.06" stroke="rgba(141, 123, 104, 0.58)" stroke-width="2"></path><path d="M853.38 1117.42C1035.53 1000.81 946.58 356.99 1261.91 354.86 1577.24 352.73 1844.55 803.41 2078.97 819.26" stroke="rgba(141, 123, 104, 0.58)" stroke-width="2"></path><path d="M978.55 1231.43C1174.64 1076.8 1064.04 328.96 1393.55 322.82 1723.06 316.68 1985.01 781.6 2223.55 798.02" stroke="rgba(141, 123, 104, 0.58)" stroke-width="2"></path></g><defs><mask id="SvgjsMask1028"><rect width="1920" height="1080" fill="#ffffff"></rect></mask></defs></svg>