<svg xmlns="http://www.w3.org/2000/svg" xmlns:xlink="http://www.w3.org/1999/xlink" width="1200" zoomAndPan="magnify" viewBox="0 0 900 374.999991" height="500" preserveAspectRatio="xMidYMid meet" version="1.0"><defs><g/><clipPath id="77d17e8136"><path d="M 117.75 158.640625 L 297.78125 158.640625 L 297.78125 186.425781 L 117.75 186.425781 Z M 117.75 158.640625 " clip-rule="nonzero"/></clipPath><clipPath id="0fae21a4da"><path d="M 117.75 188.472656 L 297.78125 188.472656 L 297.78125 216.550781 L 117.75 216.550781 Z M 117.75 188.472656 " clip-rule="nonzero"/></clipPath><clipPath id="7125da340b"><path d="M 141.71875 248.433594 L 273.828125 248.433594 L 273.828125 277.5 L 141.71875 277.5 Z M 141.71875 248.433594 " clip-rule="nonzero"/></clipPath><clipPath id="c15e5952af"><path d="M 141 97.507812 L 274 97.507812 L 274 127 L 141 127 Z M 141 97.507812 " clip-rule="nonzero"/></clipPath><clipPath id="96438af0d7"><path d="M 126 181.453125 L 297.210938 181.453125 L 297.210938 277.5 L 126 277.5 Z M 126 181.453125 " clip-rule="nonzero"/></clipPath><clipPath id="2c0c41efc2"><path d="M 125 179 L 297.792969 179 L 297.792969 225 L 125 225 Z M 125 179 " clip-rule="nonzero"/></clipPath><clipPath id="3efabee1aa"><path d="M 261 181 L 297.792969 181 L 297.792969 237 L 261 237 Z M 261 181 " clip-rule="nonzero"/></clipPath><clipPath id="45a0ee6f7b"><path d="M 136.164062 234.394531 L 276.164062 234.394531 L 276.164062 277.5 L 136.164062 277.5 Z M 136.164062 234.394531 " clip-rule="nonzero"/></clipPath></defs><g clip-path="url(#77d17e8136)"><path fill="#f27022" d="M 297.785156 186.335938 C 297.660156 176.671875 296.023438 167.375 293.085938 158.671875 L 122.648438 158.671875 C 119.710938 167.375 118.074219 176.671875 117.949219 186.335938 L 297.785156 186.335938 " fill-opacity="1" fill-rule="nonzero"/></g><path fill="#f49334" d="M 123.476562 156.335938 L 292.257812 156.335938 C 288.484375 146.113281 282.914062 136.765625 275.925781 128.675781 L 139.808594 128.675781 C 132.820312 136.765625 127.246094 146.113281 123.476562 156.335938 " fill-opacity="1" fill-rule="nonzero"/><g clip-path="url(#0fae21a4da)"><path fill="#eb362f" d="M 293.085938 216.332031 C 296.023438 207.632812 297.660156 198.335938 297.785156 188.671875 L 117.949219 188.671875 C 118.074219 198.335938 119.710938 207.632812 122.648438 216.332031 L 293.085938 216.332031 " fill-opacity="1" fill-rule="nonzero"/></g><g clip-path="url(#7125da340b)"><path fill="#093950" d="M 141.90625 248.671875 C 158.332031 266.398438 181.800781 277.5 207.867188 277.5 C 233.929688 277.5 257.402344 266.398438 273.828125 248.671875 L 141.90625 248.671875 " fill-opacity="1" fill-rule="nonzero"/></g><g clip-path="url(#c15e5952af)"><path fill="#ffc44d" d="M 273.828125 126.335938 C 257.402344 108.605469 233.929688 97.507812 207.867188 97.507812 C 181.800781 97.507812 158.332031 108.605469 141.90625 126.335938 L 273.828125 126.335938 " fill-opacity="1" fill-rule="nonzero"/></g><path fill="#ffffff" d="M 270 156.335938 C 270 164.554688 263.34375 171.214844 255.132812 171.214844 C 246.921875 171.214844 240.265625 164.554688 240.265625 156.335938 C 240.265625 148.117188 246.921875 141.457031 255.132812 141.457031 C 263.34375 141.457031 270 148.117188 270 156.335938 " fill-opacity="1" fill-rule="nonzero"/><g clip-path="url(#96438af0d7)"><path fill="#04b09a" d="M 297.007812 199.324219 C 287.953125 188.714844 277.335938 180.785156 266.21875 181.777344 C 251.425781 183.097656 235.015625 197.875 221.847656 213.046875 C 211.707031 202.453125 200.039062 194.066406 188.871094 194.765625 C 170.136719 195.9375 142.992188 212.941406 126.0625 224.882812 C 140.246094 255.910156 171.539062 277.472656 207.867188 277.472656 C 253.515625 277.472656 291.21875 243.425781 297.007812 199.324219 " fill-opacity="1" fill-rule="nonzero"/></g><g clip-path="url(#2c0c41efc2)"><path fill="#ffffff" d="M 126.195312 224.789062 C 143.132812 212.855469 170.183594 195.933594 188.871094 194.765625 C 189.308594 194.738281 189.742188 194.722656 190.183594 194.722656 C 200.945312 194.722656 212.105469 202.867188 221.847656 213.046875 C 235.015625 197.875 251.425781 183.097656 266.21875 181.777344 C 266.847656 181.71875 267.476562 181.691406 268.105469 181.691406 C 278.519531 181.691406 288.429688 189.289062 296.964844 199.273438 C 297.105469 198.238281 297.230469 197.203125 297.332031 196.15625 C 287.378906 185.015625 277.554688 179.355469 268.105469 179.355469 C 267.40625 179.355469 266.699219 179.386719 266.007812 179.449219 C 253.410156 180.574219 238.53125 190.71875 221.757812 209.609375 C 210.339844 198.179688 199.722656 192.386719 190.183594 192.386719 C 189.695312 192.386719 189.207031 192.402344 188.726562 192.429688 C 170.113281 193.59375 144.023438 209.402344 125.222656 222.617188 C 125.535156 223.34375 125.859375 224.070312 126.195312 224.789062 " fill-opacity="1" fill-rule="nonzero"/></g><path fill="#093950" d="M 177.539062 253.765625 C 173.082031 235.480469 163.847656 211.785156 144.726562 194.558594 L 155.949219 193.527344 L 151.871094 190.523438 C 151.871094 190.523438 158.898438 188.355469 164.882812 189.328125 L 162.144531 185.917969 C 162.144531 185.917969 173.707031 185.523438 176.671875 187.296875 L 173.191406 183.523438 C 173.191406 183.523438 185.96875 182.925781 191.152344 186.085938 C 191.152344 186.085938 184.25 171.949219 162.945312 174.949219 C 149.472656 176.847656 144.195312 184.332031 142.132812 189.574219 C 142.597656 185.679688 144.152344 177.234375 149.113281 173.367188 L 144.703125 173.488281 L 151.617188 164.90625 L 147.660156 165.792969 L 156.070312 152.800781 C 156.070312 152.800781 142.457031 155.714844 138.234375 166.707031 C 135.523438 173.769531 137.148438 182.539062 138.65625 187.902344 C 136.363281 184.609375 131.0625 178.867188 121.195312 177.308594 C 107.113281 175.082031 100.507812 183.390625 100.507812 183.390625 L 111.898438 182.726562 L 108.734375 185.015625 L 118.75 183.808594 L 116.769531 186.085938 L 126.347656 186.871094 L 123.125 189.019531 L 132.453125 191.507812 C 127.453125 191.640625 119.789062 192.820312 112.089844 197.785156 C 99.03125 206.214844 102.222656 222.902344 102.222656 222.902344 C 102.222656 222.902344 105.34375 215.433594 108.867188 212.921875 L 109.894531 216.347656 L 112.929688 207.984375 L 114.542969 211.070312 L 122.371094 202.074219 L 122.375 205.261719 C 122.375 205.261719 128.507812 200.003906 138.96875 195.035156 C 135.734375 197.886719 127.832031 205.933594 124.257812 219.054688 C 119.707031 235.773438 134.601562 244.804688 134.601562 244.804688 L 131.921875 228.691406 L 136.53125 231.25 C 136.53125 231.25 134.472656 224.714844 135.070312 220.15625 L 139.089844 222.515625 C 139.089844 222.515625 137.378906 213.539062 138.113281 209.097656 L 141.617188 213.46875 C 141.617188 213.46875 139.691406 202.695312 141.765625 197.957031 C 146.003906 201.007812 161.765625 214.757812 168.164062 253.765625 L 177.539062 253.765625 " fill-opacity="1" fill-rule="nonzero"/><g clip-path="url(#3efabee1aa)"><path fill="#00979e" d="M 263.425781 196.582031 C 253.890625 200.089844 283.644531 202.425781 273.828125 213.140625 C 264.011719 223.855469 255.144531 227.945312 272.230469 231.0625 C 277.609375 232.042969 281.042969 234.152344 283.226562 236.582031 C 290.390625 225.59375 295.222656 212.9375 297.007812 199.324219 C 287.953125 188.714844 277.335938 180.785156 266.21875 181.777344 C 265.292969 181.859375 264.363281 181.996094 263.425781 182.179688 C 263.425781 182.179688 272.960938 193.074219 263.425781 196.582031 " fill-opacity="1" fill-rule="nonzero"/></g><path fill="#00979e" d="M 231.054688 240.203125 C 231.054688 240.203125 227.210938 224.988281 222.691406 212.082031 C 222.410156 212.402344 222.128906 212.722656 221.847656 213.046875 C 212.023438 202.785156 200.765625 194.59375 189.921875 194.726562 C 188.128906 198.226562 187.472656 202.363281 192.375 204.570312 C 201.914062 208.855469 205.808594 220.152344 195.683594 223.660156 C 185.5625 227.164062 207.867188 237.3125 207.867188 237.3125 L 231.054688 240.203125 " fill-opacity="1" fill-rule="nonzero"/><path fill="#093950" d="M 242.855469 159.03125 C 232.585938 153.660156 222.792969 153.058594 216.476562 153.472656 L 227.945312 149.261719 L 223.636719 146.925781 L 235.609375 144.828125 L 232.855469 142.191406 L 245.609375 142.550781 L 241.359375 140.035156 L 255.789062 139.554688 C 255.789062 139.554688 246.507812 129.847656 229.023438 134.28125 C 216.773438 137.390625 210.753906 145.234375 208.25 149.648438 C 209.53125 142.714844 210.5625 131.484375 206.332031 122.898438 C 199.746094 109.535156 182.261719 107.441406 182.261719 107.441406 L 194.355469 122.839844 L 189.265625 122.179688 L 198.964844 132.1875 L 193.398438 132.542969 C 200.09375 136.847656 203.027344 147.304688 204.0625 152.160156 C 200.863281 145.789062 193.347656 136.972656 176.15625 136.140625 C 148.96875 134.820312 141.90625 153.429688 141.90625 153.429688 C 148.074219 148.847656 164.238281 148.125 164.238281 148.125 L 160.289062 153.277344 C 163.820312 150.699219 178.429688 149.863281 178.429688 149.863281 L 175.375 154.476562 C 182.800781 152.558594 191.902344 154.476562 191.902344 154.476562 L 187.113281 158.734375 L 201.371094 158.734375 C 173.601562 188.785156 166.667969 229.882812 165.101562 253.539062 L 178.0625 253.539062 C 178.054688 190.492188 199.960938 167.480469 205.492188 162.675781 C 208.652344 168.402344 207.46875 182.199219 207.46875 182.199219 L 211.382812 176.285156 C 212.816406 181.796875 211.699219 193.300781 211.699219 193.300781 L 216.492188 189.867188 C 217.769531 195.539062 215.929688 204.007812 215.929688 204.007812 L 221.441406 200.253906 L 219.921875 220.863281 C 219.921875 220.863281 237.648438 207.761719 229.980469 187.230469 C 223.964844 171.113281 213.082031 161.890625 208.679688 158.667969 C 222.429688 163.722656 230.761719 169.636719 230.761719 169.636719 L 230.402344 165.621094 L 241.300781 176.046875 L 242.976562 171.972656 L 247.765625 182.15625 L 248.664062 177.722656 C 253.394531 180.480469 258.183594 189.527344 258.183594 189.527344 C 258.183594 189.527344 260.277344 168.136719 242.855469 159.03125 " fill-opacity="1" fill-rule="nonzero"/><g clip-path="url(#45a0ee6f7b)"><path fill="#093950" d="M 276.117188 246.066406 C 241.621094 241.96875 189.441406 233.617188 167.332031 234.503906 C 154.175781 235.027344 143.628906 238.660156 136.417969 242.117188 C 152.847656 263.605469 178.738281 277.472656 207.867188 277.472656 C 235.167969 277.472656 259.628906 265.289062 276.117188 246.066406 " fill-opacity="1" fill-rule="nonzero"/></g><path fill="#ffffff" d="M 137.15625 243.078125 C 144.257812 239.707031 154.582031 236.183594 167.375 235.671875 C 183.503906 235.015625 216.492188 239.425781 245.597656 243.308594 C 256.074219 244.707031 266.203125 246.054688 275.1875 247.132812 C 275.808594 246.429688 276.421875 245.71875 277.023438 244.996094 C 267.679688 243.894531 256.984375 242.46875 245.90625 240.992188 C 216.710938 237.097656 183.617188 232.679688 167.285156 233.335938 C 153.742188 233.875 142.988281 237.609375 135.679688 241.144531 C 136.164062 241.792969 136.652344 242.441406 137.15625 243.078125 " fill-opacity="1" fill-rule="nonzero"/><g fill="#ffffff" fill-opacity="1"><g transform="translate(326.277207, 229.232035)"><g><path d="M 83.734375 0 L 65.328125 0 L 58.109375 -18.859375 L 24.796875 -18.859375 L 17.9375 0 L 0 0 L 32.484375 -83.375 L 50.3125 -83.375 Z M 29.921875 -32.953125 L 52.75 -32.953125 L 41.21875 -63.9375 Z M 29.921875 -32.953125 "/></g></g></g><g fill="#ffffff" fill-opacity="1"><g transform="translate(411.518079, 229.232035)"><g><path d="M 24.34375 0 L 8.390625 0 L 8.390625 -83.375 L 24.34375 -83.375 Z M 24.34375 0 "/></g></g></g><g fill="#ffffff" fill-opacity="1"><g transform="translate(445.05552, 229.232035)"><g><path d="M 13.625 -79.078125 C 15.175781 -81.015625 17.191406 -82.445312 19.671875 -83.375 C 22.160156 -84.3125 25.226562 -84.78125 28.875 -84.78125 C 33.382812 -84.78125 37.8125 -84.117188 42.15625 -82.796875 L 40.0625 -71.625 C 37.34375 -72.238281 34.894531 -72.546875 32.71875 -72.546875 C 30.238281 -72.546875 28.53125 -71.941406 27.59375 -70.734375 C 26.664062 -69.535156 26.203125 -67.773438 26.203125 -65.453125 L 26.203125 -60.328125 L 38.203125 -60.328125 L 38.203125 -47.625 L 26.203125 -47.625 L 26.203125 0 L 10.25 0 L 10.25 -47.625 L 1.390625 -47.625 L 1.390625 -60.328125 L 10.25 -60.328125 L 10.25 -66.265625 C 10.25 -72.003906 11.375 -76.273438 13.625 -79.078125 Z M 13.625 -79.078125 "/></g></g></g><g fill="#ffffff" fill-opacity="1"><g transform="translate(484.997664, 229.232035)"><g><path d="M 36.328125 -61.71875 C 38.035156 -61.71875 39.84375 -61.445312 41.75 -60.90625 C 43.65625 -60.363281 45.34375 -59.664062 46.8125 -58.8125 L 41.8125 -44.828125 C 39.09375 -46.535156 36.609375 -47.390625 34.359375 -47.390625 C 31.328125 -47.390625 29.035156 -46.359375 27.484375 -44.296875 C 25.929688 -42.242188 24.898438 -39.375 24.390625 -35.6875 C 23.890625 -32 23.640625 -27.09375 23.640625 -20.96875 L 23.640625 0 L 7.6875 0 L 7.6875 -60.328125 L 22.46875 -60.328125 L 22.46875 -51.828125 L 22.703125 -51.828125 C 24.648438 -55.085938 26.59375 -57.550781 28.53125 -59.21875 C 30.46875 -60.882812 33.066406 -61.71875 36.328125 -61.71875 Z M 36.328125 -61.71875 "/></g></g></g><g fill="#ffffff" fill-opacity="1"><g transform="translate(531.460948, 229.232035)"><g><path d="M 31.4375 -61.71875 C 41.0625 -61.71875 48.242188 -58.59375 52.984375 -52.34375 C 57.722656 -46.09375 60.09375 -37.1875 60.09375 -25.625 L 20.03125 -25.625 C 20.1875 -21.582031 21.367188 -18.101562 23.578125 -15.1875 C 25.796875 -12.28125 29 -10.828125 33.1875 -10.828125 C 35.832031 -10.828125 37.988281 -11.503906 39.65625 -12.859375 C 41.320312 -14.222656 42.546875 -16.34375 43.328125 -19.21875 L 59.28125 -16.53125 C 57.257812 -10.632812 53.992188 -6.171875 49.484375 -3.140625 C 44.984375 -0.117188 39.472656 1.390625 32.953125 1.390625 C 23.253906 1.390625 15.921875 -1.519531 10.953125 -7.34375 C 8.617188 -10.050781 6.828125 -13.460938 5.578125 -17.578125 C 4.335938 -21.691406 3.71875 -25.769531 3.71875 -29.8125 C 3.71875 -35.320312 4.707031 -40.503906 6.6875 -45.359375 C 8.675781 -50.210938 11.742188 -54.148438 15.890625 -57.171875 C 20.046875 -60.203125 25.226562 -61.71875 31.4375 -61.71875 Z M 20.375 -35.40625 L 44.25 -35.40625 C 44.175781 -40.289062 42.953125 -43.859375 40.578125 -46.109375 C 38.210938 -48.367188 35.4375 -49.5 32.25 -49.5 C 28.53125 -49.5 25.617188 -48.15625 23.515625 -45.46875 C 21.421875 -42.789062 20.375 -39.4375 20.375 -35.40625 Z M 20.375 -35.40625 "/></g></g></g><g fill="#ffffff" fill-opacity="1"><g transform="translate(597.371245, 229.232035)"><g><path d="M 30.390625 -61.71875 C 37.921875 -61.71875 43.835938 -60.472656 48.140625 -57.984375 C 52.453125 -55.503906 55.425781 -51.429688 57.0625 -45.765625 L 41.921875 -42.96875 C 41.222656 -45.457031 39.960938 -47.300781 38.140625 -48.5 C 36.316406 -49.707031 33.773438 -50.3125 30.515625 -50.3125 C 23.296875 -50.3125 19.6875 -48.640625 19.6875 -45.296875 C 19.6875 -43.671875 20.867188 -42.367188 23.234375 -41.390625 C 25.597656 -40.421875 29.03125 -39.429688 33.53125 -38.421875 C 39.050781 -37.179688 43.554688 -35.921875 47.046875 -34.640625 C 50.535156 -33.359375 53.40625 -31.457031 55.65625 -28.9375 C 57.914062 -26.414062 59.046875 -23.054688 59.046875 -18.859375 C 59.046875 -15.441406 58.09375 -12.203125 56.1875 -9.140625 C 54.28125 -6.078125 51.269531 -3.554688 47.15625 -1.578125 C 43.039062 0.398438 37.84375 1.390625 31.5625 1.390625 C 24.5 1.390625 18.269531 -0.117188 12.875 -3.140625 C 7.476562 -6.171875 4.078125 -10.867188 2.671875 -17.234375 L 18.625 -19.6875 C 20.101562 -13.238281 24.414062 -10.015625 31.5625 -10.015625 C 34.351562 -10.015625 36.972656 -10.5 39.421875 -11.46875 C 41.867188 -12.4375 43.09375 -14.164062 43.09375 -16.65625 C 43.09375 -18.28125 42.523438 -19.421875 41.390625 -20.078125 C 40.265625 -20.742188 38.460938 -21.347656 35.984375 -21.890625 C 28.609375 -23.523438 22.863281 -25.039062 18.75 -26.4375 C 14.632812 -27.832031 11.296875 -29.847656 8.734375 -32.484375 C 6.171875 -35.128906 4.890625 -38.703125 4.890625 -43.203125 C 4.890625 -49.492188 7.296875 -54.148438 12.109375 -57.171875 C 16.921875 -60.203125 23.015625 -61.71875 30.390625 -61.71875 Z M 30.390625 -61.71875 "/></g></g></g><g fill="#ffffff" fill-opacity="1"><g transform="translate(663.281542, 229.232035)"><g><path d="M 23.75 -39.125 L 42.5 -60.328125 L 62.1875 -60.328125 L 41.578125 -38.3125 L 63.578125 0 L 46.34375 0 L 31.203125 -27.140625 L 23.75 -19.328125 L 23.75 0 L 7.796875 0 L 7.796875 -83.375 L 23.75 -83.375 Z M 23.75 -39.125 "/></g></g></g><g fill="#ffffff" fill-opacity="1"><g transform="translate(729.19184, 229.232035)"><g><path d="M 35.75 -61.71875 C 42.269531 -61.71875 47.894531 -60.242188 52.625 -57.296875 C 57.363281 -54.347656 60.9375 -50.460938 63.34375 -45.640625 C 65.75 -40.828125 66.953125 -35.742188 66.953125 -30.390625 C 66.953125 -24.804688 65.691406 -19.585938 63.171875 -14.734375 C 60.648438 -9.878906 57.039062 -5.976562 52.34375 -3.03125 C 47.644531 -0.0820312 42.15625 1.390625 35.875 1.390625 C 30.507812 1.390625 25.457031 0.285156 20.71875 -1.921875 C 15.988281 -4.128906 12.128906 -7.660156 9.140625 -12.515625 C 6.148438 -17.367188 4.65625 -23.519531 4.65625 -30.96875 C 4.65625 -36.175781 5.835938 -41.128906 8.203125 -45.828125 C 10.578125 -50.523438 14.113281 -54.347656 18.8125 -57.296875 C 23.507812 -60.242188 29.15625 -61.71875 35.75 -61.71875 Z M 21.078125 -30.15625 C 21.078125 -24.101562 22.492188 -19.503906 25.328125 -16.359375 C 28.160156 -13.210938 31.632812 -11.640625 35.75 -11.640625 C 39.863281 -11.640625 43.359375 -13.191406 46.234375 -16.296875 C 49.109375 -19.410156 50.546875 -24.070312 50.546875 -30.28125 C 50.546875 -36.019531 49.164062 -40.519531 46.40625 -43.78125 C 43.644531 -47.039062 40.054688 -48.671875 35.640625 -48.671875 C 31.597656 -48.671875 28.160156 -47.078125 25.328125 -43.890625 C 22.492188 -40.710938 21.078125 -36.132812 21.078125 -30.15625 Z M 21.078125 -30.15625 "/></g></g></g></svg>