<?xml version="1.0" encoding="UTF-8"?>
<svg id="Layer_1" data-name="Layer 1" xmlns="http://www.w3.org/2000/svg" width="927.51" height="239.99" xmlns:xlink="http://www.w3.org/1999/xlink" viewBox="0 0 927.51 239.99">
  <defs>
    <style>
      .cls-1 {
        fill: #fff;
      }

      .cls-2 {
        fill: #f27022;
      }

      .cls-3 {
        clip-path: url(#clippath-2);
      }

      .cls-4 {
        fill: #ffc44d;
      }

      .cls-5 {
        fill: #eb362f;
      }

      .cls-6 {
        clip-path: url(#clippath-6);
      }

      .cls-7 {
        fill: #00979e;
      }

      .cls-8 {
        fill: #04b09a;
      }

      .cls-9 {
        clip-path: url(#clippath-7);
      }

      .cls-10 {
        clip-path: url(#clippath-1);
      }

      .cls-11 {
        clip-path: url(#clippath-4);
      }

      .cls-12 {
        clip-path: url(#clippath);
      }

      .cls-13 {
        fill: none;
      }

      .cls-14 {
        clip-path: url(#clippath-3);
      }

      .cls-15 {
        fill: #f49334;
      }

      .cls-16 {
        clip-path: url(#clippath-5);
      }

      .cls-17 {
        fill: #093950;
      }
    </style>
    <clipPath id="clippath">
      <rect class="cls-13" x="22.99" y="81.51" width="240.04" height="37.05"/>
    </clipPath>
    <clipPath id="clippath-1">
      <rect class="cls-13" x="22.99" y="121.29" width="240.04" height="37.44"/>
    </clipPath>
    <clipPath id="clippath-2">
      <rect class="cls-13" x="54.95" y="201.23" width="176.15" height="38.76"/>
    </clipPath>
    <clipPath id="clippath-3">
      <rect class="cls-13" x="53.99" width="177.33" height="39.32"/>
    </clipPath>
    <clipPath id="clippath-4">
      <rect class="cls-13" x="33.99" y="111.93" width="228.28" height="128.06"/>
    </clipPath>
    <clipPath id="clippath-5">
      <rect class="cls-13" x="32.66" y="108.66" width="230.39" height="61.33"/>
    </clipPath>
    <clipPath id="clippath-6">
      <rect class="cls-13" x="213.99" y="111.32" width="49.06" height="74.67"/>
    </clipPath>
    <clipPath id="clippath-7">
      <rect class="cls-13" x="47.54" y="182.52" width="186.67" height="57.47"/>
    </clipPath>
  </defs>
  <g class="cls-12">
    <path class="cls-2" d="m263.04,118.44c-.17-12.89-2.35-25.28-6.27-36.89H29.52c-3.92,11.6-6.1,24-6.27,36.89h239.78"/>
  </g>
  <path class="cls-15" d="m30.63,78.44h225.04c-5.03-13.63-12.46-26.09-21.78-36.88H52.4c-9.32,10.79-16.75,23.25-21.78,36.88"/>
  <g class="cls-10">
    <path class="cls-5" d="m256.77,158.43c3.92-11.6,6.1-23.99,6.27-36.88H23.26c.17,12.89,2.35,25.28,6.27,36.88h227.25"/>
  </g>
  <g class="cls-3">
    <path class="cls-17" d="m55.2,201.55c21.9,23.64,53.19,38.44,87.95,38.44s66.05-14.8,87.95-38.44H55.2"/>
  </g>
  <g class="cls-14">
    <path class="cls-4" d="m231.09,38.44C209.19,14.8,177.9,0,143.15,0S77.1,14.8,55.2,38.44h175.9"/>
  </g>
  <path class="cls-1" d="m225.99,78.44c0,10.96-8.88,19.84-19.82,19.84s-19.82-8.88-19.82-19.84,8.88-19.84,19.82-19.84,19.82,8.88,19.82,19.84"/>
  <g class="cls-11">
    <path class="cls-8" d="m262,135.76c-12.07-14.15-26.23-24.72-41.05-23.4-19.72,1.76-41.6,21.46-59.16,41.69-13.52-14.13-29.08-25.31-43.97-24.38-24.98,1.56-61.17,24.23-83.74,40.16,18.91,41.37,60.64,70.12,109.07,70.12,60.86,0,111.14-45.4,118.85-104.2"/>
  </g>
  <g class="cls-16">
    <path class="cls-1" d="m34.25,169.71c22.58-15.91,58.65-38.47,83.57-40.03.58-.04,1.16-.06,1.75-.06,14.35,0,29.23,10.86,42.22,24.43,17.56-20.23,39.44-39.93,59.16-41.69.84-.08,1.68-.11,2.52-.11,13.89,0,27.1,10.13,38.48,23.44.19-1.38.35-2.76.49-4.16-13.27-14.85-26.37-22.4-38.97-22.4-.93,0-1.88.04-2.8.13-16.8,1.5-36.64,15.03-59,40.21-15.22-15.24-29.38-22.96-42.1-22.96-.65,0-1.3.02-1.94.06-24.82,1.55-59.6,22.63-84.67,40.25.42.97.85,1.94,1.3,2.9"/>
  </g>
  <path class="cls-17" d="m102.71,208.34c-5.94-24.38-18.26-55.97-43.75-78.94l14.96-1.38-5.44-4.01s9.37-2.89,17.35-1.59l-3.65-4.55s15.42-.53,19.37,1.84l-4.64-5.03s17.04-.8,23.95,3.42c0,0-9.2-18.85-37.61-14.85-17.96,2.53-25,12.51-27.75,19.5.62-5.19,2.69-16.45,9.31-21.61l-5.88.16,9.22-11.44-5.28,1.18,11.21-17.32s-18.15,3.89-23.78,18.54c-3.61,9.42-1.45,21.11.56,28.26-3.06-4.39-10.13-12.05-23.28-14.13-18.78-2.97-27.58,8.11-27.58,8.11l15.19-.89-4.22,3.05,13.35-1.61-2.64,3.04,12.77,1.05-4.3,2.86,12.44,3.32c-6.67.18-16.89,1.75-27.15,8.37-17.41,11.24-13.16,33.49-13.16,33.49,0,0,4.16-9.96,8.86-13.31l1.37,4.57,4.05-11.15,2.15,4.11,10.44-11.99v4.25s8.18-7.01,22.13-13.64c-4.31,3.8-14.85,14.53-19.61,32.03-6.07,22.29,13.79,34.33,13.79,34.33l-3.57-21.48,6.15,3.41s-2.74-8.71-1.95-14.79l5.36,3.15s-2.28-11.97-1.3-17.89l4.67,5.83s-2.57-14.36.2-20.68c5.65,4.07,26.67,22.4,35.2,74.41h12.5"/>
  <g class="cls-6">
    <path class="cls-7" d="m217.22,132.1c-12.71,4.68,26.96,7.79,13.87,22.08s-24.91,19.74-2.13,23.9c7.17,1.31,11.75,4.12,14.66,7.36,9.55-14.65,15.99-31.53,18.38-49.68-12.07-14.15-26.23-24.72-41.05-23.4-1.23.11-2.47.29-3.72.54,0,0,12.71,14.53,0,19.2"/>
  </g>
  <path class="cls-7" d="m174.06,190.26s-5.13-20.29-11.15-37.49c-.38.43-.75.85-1.13,1.29-13.1-13.68-28.11-24.6-42.57-24.43-2.39,4.67-3.27,10.18,3.27,13.13,12.72,5.71,17.91,20.78,4.41,25.45-13.49,4.67,16.24,18.2,16.24,18.2l30.92,3.85"/>
  <path class="cls-17" d="m189.8,82.03c-13.69-7.16-26.75-7.96-35.17-7.41l15.29-5.61-5.74-3.11,15.96-2.8-3.67-3.52,17.01.48-5.67-3.35,19.24-.64s-12.38-12.94-35.69-7.03c-16.33,4.15-24.36,14.6-27.7,20.49,1.71-9.24,3.08-24.22-2.56-35.67-8.78-17.82-32.09-20.61-32.09-20.61l16.13,20.53-6.79-.88,12.93,13.34-7.42.47c8.93,5.74,12.84,19.68,14.22,26.16-4.27-8.49-14.29-20.25-37.21-21.36-36.25-1.76-45.67,23.05-45.67,23.05,8.22-6.11,29.78-7.07,29.78-7.07l-5.27,6.87c4.71-3.44,24.19-4.55,24.19-4.55l-4.07,6.15c9.9-2.56,22.04,0,22.04,0l-6.39,5.68h19.01c-37.03,40.07-46.27,94.86-48.36,126.41h17.28c-.01-84.06,29.2-114.74,36.57-121.15,4.21,7.64,2.64,26.03,2.64,26.03l5.22-7.89c1.91,7.35.42,22.69.42,22.69l6.39-4.58c1.7,7.56-.75,18.85-.75,18.85l7.35-5.01-2.03,27.48s23.64-17.47,13.41-44.84c-8.02-21.49-22.53-33.79-28.4-38.08,18.33,6.74,29.44,14.63,29.44,14.63l-.48-5.35,14.53,13.9,2.23-5.43,6.39,13.58,1.2-5.91c6.31,3.68,12.69,15.74,12.69,15.74,0,0,2.79-28.52-20.44-40.66"/>
  <g class="cls-9">
    <path class="cls-17" d="m234.15,198.08c-45.99-5.46-115.57-16.6-145.05-15.42-17.54.7-31.6,5.54-41.22,10.15,21.91,28.65,56.43,47.14,95.27,47.14,36.4,0,69.02-16.24,91-41.88"/>
  </g>
  <path class="cls-1" d="m48.86,194.09c9.47-4.49,23.23-9.19,40.29-9.88,21.51-.88,65.49,5.01,104.3,10.18,13.97,1.86,27.47,3.66,39.45,5.1.83-.94,1.65-1.89,2.45-2.85-12.46-1.47-26.72-3.37-41.49-5.34-38.93-5.19-83.05-11.08-104.83-10.21-18.06.72-32.4,5.7-42.14,10.41.65.86,1.3,1.73,1.97,2.58"/>
  <path d="m412.67,175.63h-24.54l-9.63-25.15h-44.42l-9.15,25.15h-23.92l43.31-111.17h23.77l44.56,111.17h.02Zm-71.75-43.94h30.44l-15.38-41.31-15.06,41.31Z"/>
  <path d="m447.14,175.63h-21.27v-111.17h21.27v111.17Z"/>
  <path d="m477.56,70.19c2.07-2.58,4.76-4.49,8.06-5.73,3.32-1.25,7.41-1.88,12.27-1.88,6.01,0,11.92.89,17.71,2.65l-2.79,14.9c-3.63-.82-6.89-1.23-9.79-1.23-3.31,0-5.58.81-6.83,2.42-1.24,1.6-1.85,3.95-1.85,7.04v6.83h16v16.94h-16v63.5h-21.27v-63.5h-11.81v-16.94h11.81v-7.92c0-7.65,1.5-13.34,4.5-17.08h-.01Z"/>
  <path d="m561.09,93.34c2.28,0,4.69.36,7.23,1.08s4.79,1.66,6.75,2.79l-6.67,18.65c-3.63-2.28-6.94-3.42-9.94-3.42-4.04,0-7.1,1.38-9.17,4.13-2.07,2.74-3.45,6.56-4.13,11.48-.67,4.92-1,11.46-1,19.63v27.96h-21.27v-80.44h19.71v11.33h.31c2.59-4.34,5.19-7.63,7.77-9.85s6.05-3.33,10.4-3.33h0Z"/>
  <path d="m616.52,93.34c12.83,0,22.41,4.17,28.73,12.5s9.48,20.21,9.48,35.63h-53.42c.21,5.39,1.78,10.03,4.73,13.92,2.96,3.88,7.23,5.81,12.81,5.81,3.53,0,6.4-.9,8.63-2.71,2.22-1.82,3.85-4.65,4.9-8.48l21.27,3.58c-2.7,7.86-7.05,13.81-13.06,17.85-6,4.03-13.35,6.04-22.04,6.04-12.93,0-22.71-3.88-29.33-11.65-3.11-3.61-5.5-8.16-7.17-13.65-1.66-5.48-2.48-10.92-2.48-16.31,0-7.34,1.32-14.26,3.96-20.73,2.65-6.47,6.74-11.72,12.27-15.75,5.54-4.04,12.45-6.06,20.73-6.06h-.01Zm-14.75,35.09h31.83c-.1-6.51-1.73-11.27-4.9-14.27-3.16-3.01-6.85-4.52-11.1-4.52-4.96,0-8.84,1.79-11.65,5.38-2.79,3.57-4.19,8.04-4.19,13.42h.01Z"/>
  <path d="m703.01,93.34c10.04,0,17.93,1.66,23.67,4.98,5.75,3.31,9.71,8.74,11.9,16.29l-20.19,3.73c-.93-3.32-2.61-5.78-5.04-7.38-2.43-1.61-5.82-2.42-10.17-2.42-9.63,0-14.44,2.23-14.44,6.69,0,2.17,1.57,3.91,4.73,5.21,3.15,1.29,7.73,2.61,13.73,3.96,7.36,1.66,13.36,3.33,18.02,5.04,4.65,1.71,8.48,4.24,11.48,7.6,3.01,3.36,4.52,7.84,4.52,13.44,0,4.56-1.27,8.88-3.81,12.96s-6.56,7.45-12.04,10.08c-5.49,2.64-12.42,3.96-20.79,3.96-9.42,0-17.72-2.01-24.92-6.04-7.2-4.04-11.73-10.3-13.6-18.79l21.27-3.27c1.97,8.6,7.72,12.9,17.25,12.9,3.72,0,7.21-.65,10.48-1.94,3.26-1.29,4.9-3.59,4.9-6.92,0-2.17-.76-3.69-2.27-4.56-1.5-.89-3.91-1.69-7.21-2.42-9.83-2.18-17.49-4.2-22.98-6.06s-9.94-4.55-13.35-8.06c-3.42-3.53-5.13-8.29-5.13-14.29,0-8.39,3.21-14.59,9.63-18.63,6.42-4.04,14.54-6.06,24.38-6.06h-.02Z"/>
  <path d="m782.03,123.47l25-28.27h26.25l-27.48,29.35,29.33,51.08h-22.98l-20.19-36.19-9.94,10.42v25.77h-21.27v-111.17h21.27v59h0Z"/>
  <path d="m885.91,93.34c8.69,0,16.19,1.97,22.5,5.9,6.32,3.93,11.08,9.11,14.29,15.54,3.21,6.42,4.81,13.2,4.81,20.33s-1.68,14.41-5.04,20.88-8.18,11.68-14.44,15.6c-6.27,3.93-13.58,5.9-21.96,5.9-7.16,0-13.89-1.47-20.21-4.42-6.31-2.94-11.45-7.65-15.44-14.13-3.99-6.47-5.98-14.67-5.98-24.6,0-6.94,1.57-13.55,4.73-19.81,3.17-6.26,7.88-11.36,14.15-15.29,6.26-3.93,13.79-5.9,22.58-5.9h.01Zm-19.56,42.08c0,8.07,1.89,14.2,5.67,18.4,3.78,4.2,8.41,6.29,13.9,6.29s10.15-2.07,13.98-6.21c3.83-4.15,5.75-10.36,5.75-18.65,0-7.65-1.84-13.65-5.52-18-3.68-4.34-8.47-6.52-14.35-6.52-5.39,0-9.97,2.13-13.75,6.38-3.78,4.24-5.67,10.34-5.67,18.31h-.01Z"/>
</svg>