<?xml version="1.0" encoding="UTF-8"?>
<svg id="Layer_1" data-name="Layer 1" xmlns="http://www.w3.org/2000/svg" width="250.77" height="325.55" xmlns:xlink="http://www.w3.org/1999/xlink" viewBox="0 0 250.77 325.55">
  <defs>
    <style>
      .cls-1 {
        fill: #fff;
      }

      .cls-2 {
        fill: #f27022;
      }

      .cls-3 {
        clip-path: url(#clippath-2);
      }

      .cls-4 {
        fill: #ffc44d;
      }

      .cls-5 {
        fill: #eb362f;
      }

      .cls-6 {
        fill: #00979e;
      }

      .cls-7 {
        fill: #04b09a;
      }

      .cls-8 {
        clip-path: url(#clippath-1);
      }

      .cls-9 {
        clip-path: url(#clippath-4);
      }

      .cls-10 {
        clip-path: url(#clippath);
      }

      .cls-11 {
        fill: none;
      }

      .cls-12 {
        clip-path: url(#clippath-3);
      }

      .cls-13 {
        fill: #f49334;
      }

      .cls-14 {
        clip-path: url(#clippath-5);
      }

      .cls-15 {
        fill: #093950;
      }
    </style>
    <clipPath id="clippath">
      <rect class="cls-11" x="21.9" y="134.5" width="228.3" height="35.2"/>
    </clipPath>
    <clipPath id="clippath-1">
      <rect class="cls-11" x="21.9" y="172.3" width="228.3" height="35.6"/>
    </clipPath>
    <clipPath id="clippath-2">
      <rect class="cls-11" x="52.5" y="248.3" width="167.3" height="36.8"/>
    </clipPath>
    <clipPath id="clippath-3">
      <rect class="cls-11" x="52.5" y="57.1" width="168" height="37.1"/>
    </clipPath>
    <clipPath id="clippath-4">
      <rect class="cls-11" x="32.2" y="163.5" width="217.2" height="121.6"/>
    </clipPath>
    <clipPath id="clippath-5">
      <rect class="cls-11" x="45.2" y="230.5" width="177.5" height="54.6"/>
    </clipPath>
  </defs>
  <g id="Layer_1-2" data-name="Layer 1">
    <g id="Layer_1-3" data-name="Layer 1">
      <g class="cls-10">
        <path class="cls-2" d="m250.1,169.6c-.2-12.2-2.2-24-6-35H28.1c-3.7,11-5.8,22.8-6,35h228"/>
      </g>
      <path class="cls-13" d="m29.1,131.6h214c-4.8-12.9-11.8-24.8-20.7-35H49.8c-8.8,10.2-15.9,22.1-20.7,35"/>
      <g class="cls-8">
        <path class="cls-5" d="m244.2,207.6c3.7-11,5.8-22.8,6-35H22.2c.2,12.2,2.2,24,6,35h216"/>
      </g>
      <g class="cls-3">
        <path class="cls-15" d="m52.5,248.6c20.8,22.5,50.6,36.5,83.6,36.5s62.8-14.1,83.6-36.5H52.5"/>
      </g>
      <g class="cls-12">
        <path class="cls-4" d="m219.8,93.6c-20.8-22.5-50.6-36.5-83.6-36.5s-62.9,14.1-83.7,36.5h167.3"/>
      </g>
      <path class="cls-1" d="m214.9,131.6c0,10.4-8.4,18.8-18.9,18.8s-18.9-8.4-18.9-18.8,8.4-18.8,18.9-18.8,18.9,8.4,18.9,18.8"/>
      <g class="cls-9">
        <path class="cls-7" d="m249.2,186.1c-11.5-13.4-24.9-23.5-39-22.2-18.8,1.7-39.6,20.4-56.3,39.6-12.9-13.4-27.7-24-41.8-23.2-23.8,1.5-58.2,23-79.6,38.2,18,39.3,57.7,66.6,103.7,66.6,57.8,0,105.6-43.2,113-99"/>
      </g>
      <path class="cls-1" d="m32.6,218.3c21.5-15.1,55.8-36.6,79.5-38,.6,0,1.1-.1,1.7-.1,13.7,0,27.8,10.3,40.2,23.2,16.7-19.2,37.5-37.9,56.3-39.6.8-.1,1.6-.1,2.4-.1,13.2,0,25.8,9.6,36.6,22.3.2-1.3.3-2.6.5-3.9-12.6-14.1-25.1-21.3-37.1-21.3-.9,0-1.8,0-2.7.1-16,1.4-34.8,14.3-56.1,38.2-14.5-14.5-27.9-21.8-40-21.8-.6,0-1.2,0-1.8.1-23.6,1.5-56.7,21.5-80.5,38.2.1.9.6,1.8,1,2.7"/>
      <path class="cls-15" d="m97.7,255c-5.7-23.2-17.4-53.2-41.6-75l14.2-1.3-5.2-3.8s8.9-2.7,16.5-1.5l-3.5-4.3s14.7-.5,18.4,1.7l-4.4-4.8s16.2-.8,22.8,3.2c0,0-8.8-17.9-35.8-14.1-17.1,2.4-23.8,11.9-26.4,18.5.6-4.9,2.6-15.6,8.8-20.5l-5.6.2,8.8-10.9-5,1.1,10.7-16.5s-17.3,3.7-22.6,17.6c-3.4,8.9-1.4,20.1.5,26.8-2.9-4.2-9.6-11.4-22.1-13.4-17.8-2.6-26.2,7.9-26.2,7.9l14.4-.8-4,2.9,12.7-1.5-2.5,2.9,12.1,1-4.1,2.7,11.8,3.1c-6.3.2-16.1,1.7-25.8,8-16.6,10.7-12.5,31.8-12.5,31.8,0,0,4-9.5,8.4-12.6l1.3,4.3,3.8-10.6,2,3.9,9.9-11.4v4s7.8-6.7,21-13c-4.1,3.6-14.1,13.8-18.7,30.4-5.8,21.2,13.1,32.6,13.1,32.6l-3.4-20.4,5.8,3.2s-2.6-8.3-1.9-14l5.1,3s-2.2-11.4-1.2-17l4.4,5.5s-2.4-13.6.2-19.6c5.4,3.9,25.4,21.3,33.5,70.7h12.3"/>
      <path class="cls-6" d="m206.6,182.6c-12.1,4.4,25.6,7.4,13.2,21-12.4,13.6-23.7,18.8-2,22.7,6.8,1.2,11.2,3.9,13.9,7,9.1-13.9,15.2-30,17.5-47.2-11.5-13.4-24.9-23.5-39-22.2-1.2.1-2.3.3-3.5.5-.1-.1,12,13.8-.1,18.2"/>
      <path class="cls-6" d="m165.5,237.8s-4.9-19.3-10.6-35.6c-.4.4-.7.8-1.1,1.2-12.5-13-26.7-23.4-40.5-23.2-2.3,4.4-3.1,9.7,3.1,12.5,12.1,5.4,17,19.7,4.2,24.2-12.8,4.4,15.4,17.3,15.4,17.3l29.5,3.6"/>
      <path class="cls-15" d="m180.5,135c-13-6.8-25.4-7.6-33.4-7l14.5-5.3-5.5-3,15.2-2.7-3.5-3.3,16.2.5-5.4-3.2,18.3-.6s-11.8-12.3-33.9-6.7c-15.5,3.9-23.2,13.9-26.3,19.5,1.6-8.8,2.9-23-2.4-33.9-8.4-16.9-30.5-19.6-30.5-19.6l15.2,19.5-6.5-.8,12.3,12.7-7.1.5c8.5,5.4,12.2,18.7,13.5,24.8-4.1-8.1-13.6-19.2-35.4-20.3-34.5-1.7-43.4,21.9-43.4,21.9,7.8-5.8,28.3-6.7,28.3-6.7l-5,6.5c4.5-3.3,23-4.3,23-4.3l-3.9,5.8c9.4-2.4,21,0,21,0l-6.1,5.4h18.1c-35.2,38.1-44,90.1-46,120.1h16.4c0-79.9,27.8-109,34.8-115.1,4,7.3,2.5,24.7,2.5,24.7l5-7.5c1.8,7,.4,21.6.4,21.6l6.1-4.4c1.6,7.2-.7,17.9-.7,17.9l7-4.8-1.9,26.1s22.5-16.6,12.8-42.6c-7.6-20.4-21.4-32.1-27-36.2,17.4,6.4,28,13.9,28,13.9l-.5-5.1,13.8,13.2,2.1-5.2,6.1,12.9,1.1-5.6c6,3.5,12.1,15,12.1,15,0,0,2.7-27-19.4-38.6"/>
      <g class="cls-14">
        <path class="cls-15" d="m222.7,245.3c-43.7-5.2-109.9-15.8-137.9-14.6-16.7.7-30.1,5.3-39.2,9.6,20.8,27.2,53.7,44.8,90.6,44.8,34.5,0,65.6-15.5,86.5-39.8"/>
      </g>
      <path class="cls-1" d="m46.5,241.5c9-4.3,22.1-8.7,38.3-9.4,20.4-.8,62.3,4.8,99.2,9.7,13.3,1.8,26.1,3.5,37.5,4.8.8-.9,1.6-1.8,2.3-2.7-11.8-1.4-25.4-3.2-39.5-5.1-37-4.9-79-10.5-99.7-9.7-17.2.7-30.8,5.4-40.1,9.9.7.9,1.3,1.7,2,2.5"/>
      <path class="cls-1" d="m55.01,52.17l-5.4,4.1-6.3-3.9-9.7,7.4,2.1,7-5.2,4-9-31.7,5.2-3.9,28.3,17Zm-23.1,2.2l6.7-5-10.2-6.5,3.5,11.5Z"/>
      <path class="cls-1" d="m60.29,44.03l13.7-6.9,2.3,4.6-19.2,9.7-13.8-27.3,5.5-2.8,11.5,22.7Z"/>
      <path class="cls-1" d="m92.03,10.13l-14.1,4.4,2.1,6.9,12.2-3.8,1.5,4.9-12.2,3.8,3.9,12.4-5.9,1.8-9.1-29.2,20-6.2,1.6,5Z"/>
      <path class="cls-1" d="m120.11,1.56c1.3.4,2.5,1.2,3.5,2.5,1,1.2,1.6,2.8,1.8,4.5.3,2.2-.2,4.2-1.4,6-1.2,1.7-3.1,2.9-5.6,3.5,1.2.6,2.1,1.2,2.7,1.6.7.4,1.4,1,2.2,1.8s1.8,2,3.1,3.5l4.1,5.2-7.3.9-5.8-6.8c-1.3-1.5-2.3-2.6-3-3.2s-1.4-1-2.1-1.2c-.7-.2-1.7-.2-2.9,0l-1.5.2,1.5,12.7-6.1.7-3.7-30.4,13.2-1.6c1.5-.2,2.8-.3,4-.3,1.2,0,2.3.2,3.3.4Zm-2.9,12.1c.7-.3,1.2-.8,1.6-1.5.4-.7.5-1.5.4-2.4-.2-1.6-1-2.6-2.5-3.1-.4-.1-.9-.2-1.4-.2s-1.5.1-2.8.2l-6.2.8.9,7.7,5.4-.6c2.3-.3,3.8-.6,4.6-.9Z"/>
      <path class="cls-1" d="m157.03,6.7l-16.5-1.1-.5,6.8,15.3,1-.4,5.1-15.3-1-.6,8.3,17,1.2-.4,5.1-23.2-1.6,2.1-30.5,22.6,1.5-.1,5.2Z"/>
      <path class="cls-1" d="m177.87,5.31c3.3.8,5.8,2.2,7.5,4.2,1.7,2,2.2,4.5,1.6,7.6l-6.1-1.2c.2-1.4-.1-2.6-.7-3.6-.6-.9-1.8-1.6-3.6-2.1-1.2-.3-2.4-.4-3.6-.2-1.2.2-1.9.8-2.2,1.9-.2.9.1,1.8.9,2.5.8.8,2.3,1.7,4.6,2.9,2.1,1.1,3.8,2.1,5.1,3.1,1.3,1,2.3,2.2,3,3.8.7,1.6.8,3.5.2,5.7-.3,1.1-.9,2.3-1.7,3.4-.8,1.1-2,2-3.4,2.6-1.1.5-2.4.7-3.9.8-1.5,0-3.3-.2-5.2-.7-3.7-.9-6.3-2.5-7.9-4.7-1.6-2.2-2.1-5-1.7-8.6l5.9,1c-.3,3.9,1.3,6.4,5,7.3,1.9.5,3.5.5,4.7-.1s1.9-1.4,2.2-2.5c.2-.8.1-1.5-.2-2.1-.4-.6-1-1.2-2-1.8-.9-.6-2.5-1.5-4.5-2.5-2.6-1.3-4.6-2.9-5.9-4.8-1.3-1.9-1.7-4-1-6.4.3-1.3,1-2.5,2-3.6s2.4-1.8,4.2-2.3c1.8-.4,4-.3,6.7.4Z"/>
      <path class="cls-1" d="m198.92,27.07l17.1-7,7.5,3.5-15.4,5.9,3.1,22-7.2-3.4-1.6-16.6-6.7,2.5-3.9,8.4-5.6-2.6,12.9-27.6,5.6,2.6-5.8,12.3Z"/>
      <path class="cls-1" d="m241.94,35.75c2.6,1.9,4.4,4.1,5.4,6.5s1.2,4.9.6,7.5c-.5,2.6-1.7,5.1-3.5,7.5-1.9,2.6-4.1,4.5-6.5,5.7-2.4,1.2-4.8,1.6-7.4,1.3-2.5-.3-5-1.4-7.4-3.1-2.5-1.9-4.3-4-5.3-6.4s-1.3-4.9-.8-7.4c.5-2.6,1.7-5.1,3.5-7.6,1.9-2.6,4-4.5,6.4-5.8,2.3-1.3,4.8-1.8,7.3-1.5,2.6.3,5.2,1.4,7.7,3.3Zm-16.1,7.6c-1.4,1.9-2.3,3.7-2.6,5.5-.3,1.7-.2,3.2.4,4.6.6,1.4,1.5,2.5,2.8,3.4,1.1.8,2.4,1.4,3.8,1.6,1.4.2,2.9,0,4.5-.8s3.2-2.2,4.8-4.3c1.7-2.4,2.6-4.8,2.7-7.2.1-2.4-1.1-4.4-3.4-6.2-2.3-1.8-4.6-2.2-6.9-1.5-2.3.9-4.3,2.5-6.1,4.9Z"/>
      <path class="cls-1" d="m34.25,265.98l-3.5-4.4-11.7,9.4-1.4-1.7,11.7-9.4-3.5-4.4,1.6-1.2,8.4,10.5-1.6,1.2Z"/>
      <path class="cls-1" d="m35.93,288.79l-1.8-1.8,2.2-5.1-5.1-4.9-4.9,2.4-1.7-1.7,16.5-7.6,1.7,1.7-6.9,17Zm1.9-14.9l-4.8,2.3,4.1,4,2.4-5.4c.3-.7.7-1.5,1.2-2.5,0,0-.4.3-1,.6-.7.4-1.3.7-1.9,1Z"/>
      <path class="cls-1" d="m54.49,281.45c1.5,1.2,2.5,2.4,2.8,3.8.3,1.4.1,2.7-.8,4l-1.8-1.2c.6-.9.7-1.8.5-2.6-.2-.8-.8-1.6-1.9-2.4-1-.7-1.9-1.1-2.7-1.2-.8-.1-1.5.2-1.9.8-.3.4-.5.8-.4,1.3,0,.5.2.9.6,1.4.1.1.4.5.9,1.2s1.2,1.5,2,2.5c1,1.2,1.5,2.3,1.6,3.4s-.2,2.1-.9,3c-.6.7-1.3,1.2-2.1,1.6-.9.3-1.8.4-2.9.1-1-.2-2.1-.7-3.1-1.5-1.2-.9-2.1-1.9-2.6-2.9-.7-1-.9-2-.9-3,.1-1,.4-2,1.1-3l1.8,1.1c-.8,1.1-1,2.2-.6,3.3s1.1,2,2.2,2.8c1,.8,2,1.2,2.9,1.2s1.7-.3,2.2-1.1c.8-1,.5-2.3-.8-3.9l-.9-1.1c-.6-.6-1.2-1.4-1.8-2.3-.7-.9-1-1.8-1.1-2.8,0-1,.2-1.8.8-2.6.5-.7,1.2-1.2,2-1.5s1.7-.3,2.6-.1c1.2.4,2.2.9,3.2,1.7Z"/>
      <path class="cls-1" d="m72.26,295.58l-4.8-2.8-7.6,12.9-1.9-1.1,7.6-12.9-4.8-2.8,1-1.7,11.6,6.8-1.1,1.6Z"/>
      <path class="cls-1" d="m86.44,301.87l-9.2-4-2.1,4.8,8.6,3.8-.8,1.8-8.6-3.8-2.3,5.3,9.5,4.1-.8,1.8-11.6-5,6.8-15.6,11.3,5-.8,1.8Z"/>
      <path class="cls-1" d="m109.93,308.48l-5.5-1.3-3.4,14.6-2.2-.5,3.4-14.6-5.5-1.3.5-1.9,13.1,3-.4,2Z"/>
      <path class="cls-1" d="m114.72,314.14l8.8.9.7-6.9,2.3.2-1.8,16.9-2.3-.2.9-8-8.8-.9-.9,8-2.2-.2,1.8-16.9,2.2.2-.7,6.9Z"/>
      <path class="cls-1" d="m142.94,310.25l-10,.2.1,5.2,9.4-.2.1,2-9.4.2.1,5.8,10.4-.2v2l-12.7.3-.4-17,12.3-.3.1,2Z"/>
      <path class="cls-1" d="m166.47,306.46l-9,1.9,1.1,5.1,7.8-1.6.4,2-7.8,1.6,1.6,7.6-2.2.5-3.4-16.6,11.2-2.3.3,1.8Z"/>
      <path class="cls-1" d="m181.79,301.6l-9.5,3.2,1.6,4.9,8.9-3,.6,1.9-8.9,3,1.8,5.5,9.9-3.3.6,1.9-12,4-5.3-16.1,11.6-3.9.7,1.9Z"/>
      <path class="cls-1" d="m196.74,294.71l-9,4.3,2.2,4.7,8.5-4,.9,1.8-8.5,4,2.5,5.2,9.4-4.5.9,1.8-11.4,5.5-7.3-15.3,11.1-5.3.7,1.8Z"/>
      <path class="cls-1" d="m209.29,302.32l7.1-4.5,1.1,1.7-9,5.7-9-14.4,1.9-1.2,7.9,12.7Z"/>
      <path class="cls-1" d="m223.6,295.03l-1.8,1.4-10.2-13.6,1.8-1.4,10.2,13.6Z"/>
      <path class="cls-1" d="m234.61,280.82l-9-9.8,1.6-1.5,11.5,12.5-1.7,1.6-15.6-3.8,9,9.8-1.6,1.4-11.5-12.5,1.7-1.5,15.6,3.8Z"/>
      <path class="cls-1" d="m234.77,260.32c2.4-2.9,5.2-3.6,8.3-2.1l-.9,1.9s-.2-.1-.5-.2c-.3-.1-.6-.2-1-.3s-.7-.1-1-.1c-1.3.2-2.4.8-3.4,2-1.2,1.5-1.7,3.1-1.5,4.7s1.2,3.1,2.8,4.4c1.7,1.4,3.4,2.1,5,1.9s3.1-1,4.4-2.6c.5-.6.9-1.4,1.2-2.3.3-1,.4-1.8.4-2.4l-2.5-2-3.2,3.9-1.5-1.2,4.6-5.5,4.8,4c0,1.4-.2,2.7-.6,3.9s-1,2.2-1.8,3.2c-1.1,1.3-2.3,2.3-3.7,2.8-1.4.5-2.8.7-4.3.4-1.5-.3-2.9-1-4.2-2.1s-2.3-2.4-2.9-3.7c-.6-1.4-.8-2.8-.5-4.2.2-1.6.9-3,2-4.4Z"/>
    </g>
  </g>
</svg>