<svg xmlns="http://www.w3.org/2000/svg" xmlns:xlink="http://www.w3.org/1999/xlink" width="500" zoomAndPan="magnify" viewBox="0 0 375 374.999991" height="500" preserveAspectRatio="xMidYMid meet" version="1.0"><defs><g/><clipPath id="12a6431bf4"><path d="M 107.058594 164.285156 L 278.261719 164.285156 L 278.261719 190.683594 L 107.058594 190.683594 Z M 107.058594 164.285156 " clip-rule="nonzero"/></clipPath><clipPath id="d537b9954b"><path d="M 107.058594 192.625 L 278.261719 192.625 L 278.261719 219.300781 L 107.058594 219.300781 Z M 107.058594 192.625 " clip-rule="nonzero"/></clipPath><clipPath id="2bfd909ae5"><path d="M 130 249.589844 L 255.480469 249.589844 L 255.480469 277.203125 L 130 277.203125 Z M 130 249.589844 " clip-rule="nonzero"/></clipPath><clipPath id="deefdb1f2e"><path d="M 130 106.210938 L 256 106.210938 L 256 134 L 130 134 Z M 130 106.210938 " clip-rule="nonzero"/></clipPath><clipPath id="ff9f2c065e"><path d="M 114.84375 186 L 277.714844 186 L 277.714844 277.203125 L 114.84375 277.203125 Z M 114.84375 186 " clip-rule="nonzero"/></clipPath><clipPath id="49684efce0"><path d="M 124.570312 236.25 L 257.703125 236.25 L 257.703125 277.203125 L 124.570312 277.203125 Z M 124.570312 236.25 " clip-rule="nonzero"/></clipPath></defs><g clip-path="url(#12a6431bf4)"><path fill="#f27022" d="M 278.261719 190.597656 C 278.144531 181.414062 276.585938 172.582031 273.792969 164.316406 L 111.71875 164.316406 C 108.921875 172.582031 107.367188 181.414062 107.25 190.597656 L 278.261719 190.597656 " fill-opacity="1" fill-rule="nonzero"/></g><path fill="#f49334" d="M 112.503906 162.097656 L 273.003906 162.097656 C 269.417969 152.386719 264.121094 143.503906 257.472656 135.820312 L 128.035156 135.820312 C 121.390625 143.503906 116.089844 152.386719 112.503906 162.097656 " fill-opacity="1" fill-rule="nonzero"/><g clip-path="url(#d537b9954b)"><path fill="#eb362f" d="M 273.792969 219.09375 C 276.585938 210.832031 278.144531 201.996094 278.261719 192.816406 L 107.25 192.816406 C 107.367188 201.996094 108.921875 210.832031 111.71875 219.09375 L 273.792969 219.09375 " fill-opacity="1" fill-rule="nonzero"/></g><g clip-path="url(#2bfd909ae5)"><path fill="#093950" d="M 130.03125 249.816406 C 145.648438 266.65625 167.96875 277.203125 192.753906 277.203125 C 217.542969 277.203125 239.859375 266.65625 255.480469 249.816406 L 130.03125 249.816406 " fill-opacity="1" fill-rule="nonzero"/></g><g clip-path="url(#deefdb1f2e)"><path fill="#ffc44d" d="M 255.480469 133.597656 C 239.859375 116.753906 217.539062 106.210938 192.753906 106.210938 C 167.96875 106.210938 145.648438 116.753906 130.03125 133.597656 L 255.480469 133.597656 " fill-opacity="1" fill-rule="nonzero"/></g><path fill="#ffffff" d="M 251.84375 162.097656 C 251.84375 169.902344 245.511719 176.230469 237.703125 176.230469 C 229.894531 176.230469 223.5625 169.902344 223.5625 162.097656 C 223.5625 154.289062 229.894531 147.960938 237.703125 147.960938 C 245.511719 147.960938 251.84375 154.289062 251.84375 162.097656 " fill-opacity="1" fill-rule="nonzero"/><g clip-path="url(#ff9f2c065e)"><path fill="#04b09a" d="M 277.523438 202.9375 C 268.910156 192.855469 258.816406 185.324219 248.242188 186.265625 C 234.175781 187.519531 218.570312 201.558594 206.050781 215.972656 C 196.40625 205.90625 185.3125 197.941406 174.691406 198.601562 C 156.875 199.714844 131.0625 215.871094 114.960938 227.214844 C 128.453125 256.691406 158.210938 277.175781 192.753906 277.175781 C 236.164062 277.175781 272.019531 244.832031 277.523438 202.9375 " fill-opacity="1" fill-rule="nonzero"/></g><path fill="#ffffff" d="M 115.089844 227.128906 C 131.195312 215.789062 156.921875 199.714844 174.691406 198.601562 C 175.105469 198.578125 175.519531 198.5625 175.9375 198.5625 C 186.175781 198.566406 196.785156 206.300781 206.050781 215.972656 C 218.570312 201.558594 234.175781 187.519531 248.242188 186.265625 C 248.84375 186.210938 249.441406 186.1875 250.039062 186.1875 C 259.941406 186.1875 269.367188 193.402344 277.480469 202.886719 C 277.613281 201.90625 277.734375 200.917969 277.832031 199.925781 C 268.367188 189.34375 259.023438 183.964844 250.039062 183.964844 C 249.375 183.964844 248.703125 183.996094 248.046875 184.054688 C 236.066406 185.121094 221.914062 194.757812 205.964844 212.707031 C 195.105469 201.847656 185.011719 196.34375 175.9375 196.34375 C 175.476562 196.34375 175.011719 196.359375 174.554688 196.386719 C 156.851562 197.492188 132.042969 212.507812 114.167969 225.0625 C 114.464844 225.753906 114.773438 226.445312 115.089844 227.128906 " fill-opacity="1" fill-rule="nonzero"/><path fill="#093950" d="M 163.914062 254.65625 C 159.675781 237.28125 150.894531 214.773438 132.710938 198.40625 L 143.386719 197.429688 L 139.507812 194.574219 C 139.507812 194.574219 146.191406 192.515625 151.878906 193.4375 L 149.277344 190.199219 C 149.277344 190.199219 160.269531 189.824219 163.089844 191.507812 L 159.78125 187.925781 C 159.78125 187.925781 171.929688 187.355469 176.859375 190.359375 C 176.859375 190.359375 170.296875 176.929688 150.039062 179.78125 C 137.226562 181.582031 132.207031 188.691406 130.246094 193.675781 C 130.6875 189.972656 132.167969 181.953125 136.882812 178.277344 L 132.691406 178.390625 L 139.265625 170.238281 L 135.5 171.082031 L 143.5 158.738281 C 143.5 158.738281 130.554688 161.503906 126.539062 171.949219 C 123.960938 178.660156 125.503906 186.988281 126.9375 192.085938 C 124.761719 188.953125 119.71875 183.503906 110.335938 182.019531 C 96.941406 179.902344 90.660156 187.800781 90.660156 187.800781 L 101.496094 187.167969 L 98.484375 189.339844 L 108.007812 188.195312 L 106.125 190.359375 L 115.234375 191.105469 L 112.167969 193.148438 L 121.042969 195.507812 C 116.289062 195.632812 108.996094 196.753906 101.675781 201.472656 C 89.257812 209.480469 92.296875 225.332031 92.296875 225.332031 C 92.296875 225.332031 95.261719 218.238281 98.613281 215.851562 L 99.589844 219.109375 L 102.476562 211.160156 L 104.011719 214.09375 L 111.453125 205.546875 L 111.457031 208.574219 C 111.457031 208.574219 117.289062 203.582031 127.238281 198.859375 C 124.160156 201.570312 116.644531 209.214844 113.25 221.679688 C 108.917969 237.5625 123.085938 246.144531 123.085938 246.144531 L 120.535156 230.832031 L 124.917969 233.261719 C 124.917969 233.261719 122.960938 227.054688 123.527344 222.726562 L 127.351562 224.964844 C 127.351562 224.964844 125.722656 216.441406 126.421875 212.21875 L 129.757812 216.371094 C 129.757812 216.371094 127.925781 206.136719 129.894531 201.636719 C 133.925781 204.535156 148.914062 217.597656 155 254.65625 L 163.914062 254.65625 " fill-opacity="1" fill-rule="nonzero"/><path fill="#00979e" d="M 245.589844 200.328125 C 236.519531 203.660156 264.8125 205.882812 255.480469 216.0625 C 246.144531 226.238281 237.714844 230.125 253.960938 233.085938 C 259.078125 234.019531 262.34375 236.023438 264.417969 238.332031 C 271.230469 227.890625 275.824219 215.867188 277.523438 202.9375 C 268.910156 192.855469 258.816406 185.324219 248.242188 186.265625 C 247.363281 186.34375 246.480469 186.472656 245.589844 186.648438 C 245.589844 186.648438 254.65625 197 245.589844 200.328125 " fill-opacity="1" fill-rule="nonzero"/><path fill="#00979e" d="M 214.804688 241.769531 C 214.804688 241.769531 211.148438 227.316406 206.851562 215.054688 C 206.585938 215.359375 206.316406 215.664062 206.050781 215.972656 C 196.710938 206.222656 186.003906 198.441406 175.691406 198.566406 C 173.984375 201.894531 173.363281 205.824219 178.023438 207.917969 C 187.09375 211.988281 190.796875 222.722656 181.171875 226.054688 C 171.546875 229.382812 192.753906 239.023438 192.753906 239.023438 L 214.804688 241.769531 " fill-opacity="1" fill-rule="nonzero"/><path fill="#093950" d="M 226.027344 164.65625 C 216.261719 159.554688 206.949219 158.984375 200.945312 159.375 L 211.851562 155.375 L 207.75 153.15625 L 219.136719 151.164062 L 216.519531 148.660156 L 228.648438 149 L 224.605469 146.609375 L 238.324219 146.15625 C 238.324219 146.15625 229.5 136.933594 212.875 141.144531 C 201.226562 144.097656 195.503906 151.546875 193.121094 155.746094 C 194.335938 149.160156 195.320312 138.488281 191.296875 130.332031 C 185.03125 117.636719 168.40625 115.644531 168.40625 115.644531 L 179.90625 130.273438 L 175.066406 129.648438 L 184.292969 139.152344 L 178.996094 139.496094 C 185.363281 143.582031 188.15625 153.515625 189.140625 158.128906 C 186.09375 152.078125 178.949219 143.703125 162.597656 142.910156 C 136.75 141.65625 130.03125 159.335938 130.03125 159.335938 C 135.894531 154.984375 151.265625 154.296875 151.265625 154.296875 L 147.511719 159.191406 C 150.867188 156.742188 164.761719 155.945312 164.761719 155.945312 L 161.859375 160.328125 C 168.917969 158.507812 177.574219 160.328125 177.574219 160.328125 L 173.019531 164.375 L 186.578125 164.375 C 160.167969 192.921875 153.578125 231.96875 152.085938 254.4375 L 164.410156 254.4375 C 164.40625 194.546875 185.234375 172.683594 190.496094 168.117188 C 193.503906 173.558594 192.375 186.664062 192.375 186.664062 L 196.097656 181.046875 C 197.464844 186.285156 196.398438 197.214844 196.398438 197.214844 L 200.957031 193.949219 C 202.171875 199.339844 200.425781 207.386719 200.425781 207.386719 L 205.664062 203.816406 L 204.21875 223.398438 C 204.21875 223.398438 221.074219 210.953125 213.785156 191.445312 C 208.066406 176.136719 197.714844 167.371094 193.527344 164.3125 C 206.605469 169.113281 214.527344 174.730469 214.527344 174.730469 L 214.183594 170.917969 L 224.546875 180.820312 L 226.140625 176.949219 L 230.695312 186.625 L 231.550781 182.414062 C 236.046875 185.035156 240.605469 193.628906 240.605469 193.628906 C 240.605469 193.628906 242.597656 173.308594 226.027344 164.65625 " fill-opacity="1" fill-rule="nonzero"/><g clip-path="url(#49684efce0)"><path fill="#093950" d="M 257.65625 247.339844 C 224.855469 243.445312 175.234375 235.515625 154.207031 236.355469 C 141.699219 236.855469 131.667969 240.304688 124.808594 243.585938 C 140.4375 264.003906 165.054688 277.175781 192.753906 277.175781 C 218.71875 277.175781 241.976562 265.601562 257.65625 247.339844 " fill-opacity="1" fill-rule="nonzero"/></g><path fill="#ffffff" d="M 125.511719 244.5 C 132.265625 241.296875 142.085938 237.953125 154.25 237.464844 C 169.585938 236.839844 200.960938 241.03125 228.636719 244.71875 C 238.597656 246.046875 248.230469 247.332031 256.773438 248.351562 C 257.363281 247.683594 257.945312 247.011719 258.519531 246.324219 C 249.632812 245.277344 239.460938 243.921875 228.929688 242.519531 C 201.164062 238.820312 169.695312 234.625 154.164062 235.246094 C 141.285156 235.761719 131.058594 239.304688 124.109375 242.664062 C 124.570312 243.28125 125.035156 243.894531 125.511719 244.5 " fill-opacity="1" fill-rule="nonzero"/><g fill="#004447" fill-opacity="1"><g transform="translate(117.844631, 117.522929)"><g><path d="M 4.9375 -3.5 L 0.625 -0.4375 L -6.296875 -24.09375 L -1.09375 -27.78125 L 18.921875 -13.40625 L 14.609375 -10.34375 L 10.140625 -13.671875 L 3.28125 -8.8125 Z M 2.0625 -12.671875 L 6.890625 -16.09375 L -0.546875 -21.625 L -0.6875 -21.53125 Z M 2.0625 -12.671875 "/></g></g></g><g fill="#004447" fill-opacity="1"><g transform="translate(136.142159, 104.702519)"><g><path d="M 1.84375 -0.859375 L -8.03125 -21.953125 L -3.578125 -24.046875 L 4.578125 -6.625 L 13.625 -10.859375 L 15.34375 -7.1875 Z M 1.84375 -0.859375 "/></g></g></g><g fill="#004447" fill-opacity="1"><g transform="translate(151.309179, 97.456907)"><g><path d="M 1.953125 -0.5625 L -4.515625 -22.9375 L 10.296875 -27.21875 L 11.421875 -23.328125 L 1.328125 -20.421875 L 2.875 -15.09375 L 11.984375 -17.71875 L 13.109375 -13.8125 L 4 -11.1875 L 6.671875 -1.9375 Z M 1.953125 -0.5625 "/></g></g></g><g fill="#004447" fill-opacity="1"><g transform="translate(167.820203, 92.451732)"><g><path d="M 2.015625 -0.234375 L -0.625 -23.375 L 8.5 -24.40625 C 11.132812 -24.707031 13.253906 -24.253906 14.859375 -23.046875 C 16.460938 -21.847656 17.398438 -20.101562 17.671875 -17.8125 C 17.847656 -16.226562 17.644531 -14.832031 17.0625 -13.625 C 16.488281 -12.414062 15.582031 -11.453125 14.34375 -10.734375 L 20.265625 -2.296875 L 14.859375 -1.6875 L 9.546875 -9.40625 L 5.96875 -9 L 6.90625 -0.78125 Z M 5.53125 -12.921875 L 8.859375 -13.296875 C 11.628906 -13.617188 12.882812 -14.929688 12.625 -17.234375 C 12.351562 -19.597656 10.820312 -20.617188 8.03125 -20.296875 L 4.734375 -19.921875 Z M 5.53125 -12.921875 "/></g></g></g><g fill="#004447" fill-opacity="1"><g transform="translate(187.174166, 90.177753)"><g><path d="M 2.03125 0.125 L 3.390625 -23.125 L 19.046875 -22.203125 L 18.8125 -18.15625 L 8.0625 -18.796875 L 7.734375 -13.25 L 17.6875 -12.65625 L 17.453125 -8.609375 L 7.5 -9.203125 L 7.171875 -3.65625 L 17.96875 -3.015625 L 17.734375 1.046875 Z M 2.03125 0.125 "/></g></g></g><g fill="#004447" fill-opacity="1"><g transform="translate(205.254546, 91.050239)"><g><path d="M 18.0625 -12.8125 C 18.1875 -13.726562 17.96875 -14.507812 17.40625 -15.15625 C 16.84375 -15.8125 15.992188 -16.273438 14.859375 -16.546875 C 13.679688 -16.816406 12.71875 -16.785156 11.96875 -16.453125 C 11.226562 -16.117188 10.773438 -15.585938 10.609375 -14.859375 C 10.410156 -14.054688 10.617188 -13.363281 11.234375 -12.78125 C 11.847656 -12.195312 12.617188 -11.671875 13.546875 -11.203125 L 15.453125 -10.234375 C 16.703125 -9.640625 17.769531 -8.9375 18.65625 -8.125 C 19.550781 -7.320312 20.191406 -6.410156 20.578125 -5.390625 C 20.960938 -4.367188 21.003906 -3.234375 20.703125 -1.984375 C 20.203125 0.0976562 19.035156 1.566406 17.203125 2.421875 C 15.367188 3.285156 13.066406 3.394531 10.296875 2.75 C 7.546875 2.101562 5.5 0.960938 4.15625 -0.671875 C 2.8125 -2.304688 2.398438 -4.359375 2.921875 -6.828125 L 7.5625 -5.75 C 7.375 -4.59375 7.617188 -3.628906 8.296875 -2.859375 C 8.972656 -2.097656 9.9375 -1.570312 11.1875 -1.28125 C 12.414062 -0.988281 13.453125 -1.015625 14.296875 -1.359375 C 15.140625 -1.710938 15.664062 -2.304688 15.875 -3.140625 C 16.039062 -3.898438 15.835938 -4.566406 15.265625 -5.140625 C 14.703125 -5.710938 13.835938 -6.289062 12.671875 -6.875 L 10.34375 -8.078125 C 8.550781 -8.984375 7.210938 -10.0625 6.328125 -11.3125 C 5.453125 -12.5625 5.21875 -14.019531 5.625 -15.6875 C 5.9375 -17.0625 6.582031 -18.175781 7.5625 -19.03125 C 8.539062 -19.882812 9.75 -20.445312 11.1875 -20.71875 C 12.625 -20.988281 14.171875 -20.925781 15.828125 -20.53125 C 17.503906 -20.132812 18.90625 -19.503906 20.03125 -18.640625 C 21.15625 -17.773438 21.945312 -16.742188 22.40625 -15.546875 C 22.863281 -14.347656 22.945312 -13.078125 22.65625 -11.734375 Z M 18.0625 -12.8125 "/></g></g></g><g fill="#004447" fill-opacity="1"><g transform="translate(224.138931, 95.277462)"><g><path d="M 1.859375 0.8125 L 11.203125 -20.53125 L 15.71875 -18.5625 L 11.59375 -9.15625 L 11.859375 -9.03125 L 23.671875 -15.078125 L 29.078125 -12.703125 L 16.984375 -6.609375 L 19.828125 8.671875 L 14.421875 6.3125 L 12.4375 -5.015625 L 9.03125 -3.28125 L 6.375 2.78125 Z M 1.859375 0.8125 "/></g></g></g><g fill="#004447" fill-opacity="1"><g transform="translate(242.873353, 103.125148)"><g><path d="M 25.875 3.921875 C 24.414062 5.992188 22.78125 7.484375 20.96875 8.390625 C 19.15625 9.304688 17.3125 9.671875 15.4375 9.484375 C 13.5625 9.304688 11.78125 8.628906 10.09375 7.453125 C 8.394531 6.253906 7.140625 4.800781 6.328125 3.09375 C 5.515625 1.382812 5.226562 -0.472656 5.46875 -2.484375 C 5.707031 -4.503906 6.550781 -6.546875 8 -8.609375 C 9.457031 -10.691406 11.085938 -12.1875 12.890625 -13.09375 C 14.703125 -14 16.550781 -14.363281 18.4375 -14.1875 C 20.332031 -14.007812 22.128906 -13.320312 23.828125 -12.125 C 25.515625 -10.945312 26.757812 -9.503906 27.5625 -7.796875 C 28.363281 -6.085938 28.644531 -4.226562 28.40625 -2.21875 C 28.175781 -0.207031 27.332031 1.835938 25.875 3.921875 Z M 21.78125 1.0625 C 23.195312 -0.96875 23.835938 -2.820312 23.703125 -4.5 C 23.566406 -6.1875 22.769531 -7.539062 21.3125 -8.5625 C 19.84375 -9.59375 18.289062 -9.882812 16.65625 -9.4375 C 15.03125 -9 13.507812 -7.765625 12.09375 -5.734375 C 10.675781 -3.722656 10.035156 -1.867188 10.171875 -0.171875 C 10.304688 1.515625 11.109375 2.875 12.578125 3.90625 C 14.035156 4.925781 15.578125 5.207031 17.203125 4.75 C 18.835938 4.300781 20.363281 3.070312 21.78125 1.0625 Z M 21.78125 1.0625 "/></g></g></g><g fill="#545454" fill-opacity="1"><g transform="translate(100.729721, 264.166509)"><g><path d="M 9.390625 -6.765625 L 10.453125 -7.65625 L 16.6875 -0.21875 L 15.625 0.671875 L 13.015625 -2.453125 L 4.171875 4.96875 L 3.15625 3.765625 L 12 -3.65625 Z M 9.390625 -6.765625 "/></g></g></g><g fill="#545454" fill-opacity="1"><g transform="translate(109.599367, 274.555203)"><g><path d="M 1.53125 1.421875 L 0.328125 0.3125 L 12.625 -5.921875 L 13.796875 -4.828125 L 8.453125 7.875 L 7.265625 6.765625 L 8.8125 3.203125 L 4.984375 -0.359375 Z M 6.28125 -1.03125 L 9.375 1.84375 L 11.859375 -3.84375 L 11.78125 -3.90625 Z M 6.28125 -1.03125 "/></g></g></g><g fill="#545454" fill-opacity="1"><g transform="translate(120.141626, 284.161847)"><g><path d="M 12.703125 -2.78125 C 13.003906 -3.332031 13.039062 -3.910156 12.8125 -4.515625 C 12.582031 -5.117188 12.148438 -5.65625 11.515625 -6.125 C 10.816406 -6.625 10.140625 -6.863281 9.484375 -6.84375 C 8.828125 -6.820312 8.316406 -6.5625 7.953125 -6.0625 C 7.671875 -5.6875 7.5625 -5.300781 7.625 -4.90625 C 7.695312 -4.507812 7.84375 -4.128906 8.0625 -3.765625 C 8.289062 -3.410156 8.503906 -3.109375 8.703125 -2.859375 L 9.5625 -1.8125 C 9.789062 -1.519531 10.023438 -1.191406 10.265625 -0.828125 C 10.503906 -0.460938 10.695312 -0.0625 10.84375 0.375 C 11 0.8125 11.054688 1.269531 11.015625 1.75 C 10.972656 2.238281 10.773438 2.726562 10.421875 3.21875 C 10.015625 3.78125 9.492188 4.179688 8.859375 4.421875 C 8.234375 4.671875 7.539062 4.722656 6.78125 4.578125 C 6.019531 4.441406 5.238281 4.085938 4.4375 3.515625 C 3.3125 2.691406 2.613281 1.769531 2.34375 0.75 C 2.070312 -0.257812 2.21875 -1.207031 2.78125 -2.09375 L 4.078125 -1.140625 C 3.816406 -0.722656 3.710938 -0.300781 3.765625 0.125 C 3.828125 0.550781 3.988281 0.953125 4.25 1.328125 C 4.519531 1.710938 4.863281 2.054688 5.28125 2.359375 C 5.757812 2.703125 6.25 2.9375 6.75 3.0625 C 7.257812 3.1875 7.726562 3.1875 8.15625 3.0625 C 8.582031 2.9375 8.9375 2.6875 9.21875 2.3125 C 9.46875 1.957031 9.570312 1.601562 9.53125 1.25 C 9.488281 0.894531 9.363281 0.53125 9.15625 0.15625 C 8.945312 -0.207031 8.691406 -0.578125 8.390625 -0.953125 L 7.359375 -2.25 C 6.710938 -3.082031 6.304688 -3.882812 6.140625 -4.65625 C 5.984375 -5.4375 6.160156 -6.179688 6.671875 -6.890625 C 7.085938 -7.472656 7.617188 -7.863281 8.265625 -8.0625 C 8.910156 -8.269531 9.59375 -8.300781 10.3125 -8.15625 C 11.03125 -8.007812 11.722656 -7.695312 12.390625 -7.21875 C 13.054688 -6.726562 13.5625 -6.171875 13.90625 -5.546875 C 14.257812 -4.921875 14.441406 -4.289062 14.453125 -3.65625 C 14.460938 -3.019531 14.285156 -2.429688 13.921875 -1.890625 Z M 12.703125 -2.78125 "/></g></g></g><g fill="#545454" fill-opacity="1"><g transform="translate(131.199725, 292.022436)"><g><path d="M 6.359375 -9.671875 L 7.046875 -10.890625 L 15.53125 -6.171875 L 14.84375 -4.953125 L 11.28125 -6.9375 L 5.671875 3.15625 L 4.296875 2.390625 L 9.90625 -7.703125 Z M 6.359375 -9.671875 "/></g></g></g><g fill="#545454" fill-opacity="1"><g transform="translate(143.177129, 298.51231)"><g><path d="M 1.4375 0.59375 L 6.375 -11.359375 L 13.609375 -8.375 L 13.078125 -7.09375 L 7.296875 -9.484375 L 5.625 -5.4375 L 11.03125 -3.203125 L 10.5 -1.921875 L 5.09375 -4.15625 L 3.421875 -0.09375 L 9.28125 2.328125 L 8.75 3.609375 Z M 1.4375 0.59375 "/></g></g></g><g fill="#545454" fill-opacity="1"><g transform="translate(154.971799, 303.149882)"><g/></g></g><g fill="#545454" fill-opacity="1"><g transform="translate(161.705857, 305.319303)"><g><path d="M 3.296875 -11.09375 L 3.59375 -12.453125 L 13.078125 -10.40625 L 12.78125 -9.046875 L 8.796875 -9.90625 L 6.34375 1.375 L 4.8125 1.046875 L 7.265625 -10.234375 Z M 3.296875 -11.09375 "/></g></g></g><g fill="#545454" fill-opacity="1"><g transform="translate(175.105563, 308.137472)"><g><path d="M 1.5625 0.140625 L 2.671875 -12.75 L 4.21875 -12.625 L 3.71875 -6.875 L 10.609375 -6.28125 L 11.109375 -12.03125 L 12.65625 -11.890625 L 11.546875 1 L 10 0.859375 L 10.5 -4.90625 L 3.609375 -5.5 L 3.109375 0.265625 Z M 1.5625 0.140625 "/></g></g></g><g fill="#545454" fill-opacity="1"><g transform="translate(190.473059, 309.237914)"><g><path d="M 1.5625 -0.0625 L 1.0625 -12.984375 L 8.875 -13.28125 L 8.921875 -11.890625 L 2.671875 -11.65625 L 2.84375 -7.296875 L 8.6875 -7.515625 L 8.75 -6.125 L 2.90625 -5.90625 L 3.078125 -1.515625 L 9.421875 -1.765625 L 9.46875 -0.375 Z M 1.5625 -0.0625 "/></g></g></g><g fill="#545454" fill-opacity="1"><g transform="translate(203.12711, 308.534888)"><g/></g></g><g fill="#545454" fill-opacity="1"><g transform="translate(210.123231, 307.679254)"><g><path d="M 1.53125 -0.328125 L -1.1875 -12.984375 L 6.390625 -14.609375 L 6.6875 -13.25 L 0.640625 -11.953125 L 1.5625 -7.671875 L 7.046875 -8.84375 L 7.328125 -7.484375 L 1.84375 -6.3125 L 3.0625 -0.65625 Z M 1.53125 -0.328125 "/></g></g></g><g fill="#545454" fill-opacity="1"><g transform="translate(222.431243, 304.916158)"><g><path d="M 1.484375 -0.5 L -2.625 -12.765625 L 4.78125 -15.25 L 5.21875 -13.9375 L -0.703125 -11.953125 L 0.6875 -7.796875 L 6.21875 -9.65625 L 6.65625 -8.34375 L 1.125 -6.484375 L 2.53125 -2.3125 L 8.546875 -4.328125 L 8.984375 -3.015625 Z M 1.484375 -0.5 "/></g></g></g><g fill="#545454" fill-opacity="1"><g transform="translate(234.547208, 300.722239)"><g><path d="M 1.421875 -0.65625 L -4.046875 -12.375 L 3.03125 -15.6875 L 3.625 -14.4375 L -2.046875 -11.796875 L -0.203125 -7.828125 L 5.09375 -10.296875 L 5.6875 -9.03125 L 0.390625 -6.5625 L 2.234375 -2.59375 L 7.984375 -5.265625 L 8.578125 -4 Z M 1.421875 -0.65625 "/></g></g></g><g fill="#545454" fill-opacity="1"><g transform="translate(246.091838, 295.183219)"><g><path d="M 1.328125 -0.8125 L -5.390625 -11.859375 L -4.046875 -12.671875 L 1.953125 -2.8125 L 7.09375 -5.9375 L 7.8125 -4.75 Z M 1.328125 -0.8125 "/></g></g></g><g fill="#545454" fill-opacity="1"><g transform="translate(256.259583, 288.773866)"><g><path d="M -5.078125 -12.3125 L 2.53125 -1.84375 L 1.265625 -0.921875 L -6.34375 -11.390625 Z M -5.078125 -12.3125 "/></g></g></g><g fill="#545454" fill-opacity="1"><g transform="translate(261.837775, 284.853166)"><g><path d="M 0.234375 -17.53125 L 8.828125 -7.859375 L 7.703125 -6.859375 L -4.3125 -9.765625 L -4.421875 -9.671875 L 2.328125 -2.078125 L 1.171875 -1.03125 L -7.421875 -10.703125 L -6.296875 -11.71875 L 5.765625 -8.796875 L 5.859375 -8.875 L -0.90625 -16.5 Z M 0.234375 -17.53125 "/></g></g></g><g fill="#545454" fill-opacity="1"><g transform="translate(273.462959, 274.283651)"><g><path d="M -0.015625 -13.6875 C -0.835938 -14.03125 -1.640625 -14.125 -2.421875 -13.96875 C -3.203125 -13.8125 -3.894531 -13.375 -4.5 -12.65625 C -5 -12.070312 -5.300781 -11.414062 -5.40625 -10.6875 C -5.507812 -9.957031 -5.382812 -9.203125 -5.03125 -8.421875 C -4.6875 -7.640625 -4.09375 -6.890625 -3.25 -6.171875 C -2.394531 -5.441406 -1.550781 -4.96875 -0.71875 -4.75 C 0.113281 -4.53125 0.890625 -4.535156 1.609375 -4.765625 C 2.328125 -4.992188 2.941406 -5.410156 3.453125 -6.015625 C 3.921875 -6.566406 4.21875 -7.15625 4.34375 -7.78125 C 4.46875 -8.414062 4.421875 -9.039062 4.203125 -9.65625 C 3.984375 -10.269531 3.582031 -10.832031 3 -11.34375 L 0.796875 -8.75 L -0.265625 -9.65625 L 2.921875 -13.40625 L 3.984375 -12.5 C 4.785156 -11.8125 5.335938 -11.039062 5.640625 -10.1875 C 5.953125 -9.332031 6.015625 -8.460938 5.828125 -7.578125 C 5.640625 -6.691406 5.210938 -5.859375 4.546875 -5.078125 C 3.804688 -4.210938 2.953125 -3.625 1.984375 -3.3125 C 1.015625 -3 0 -2.984375 -1.0625 -3.265625 C -2.132812 -3.546875 -3.191406 -4.128906 -4.234375 -5.015625 C -5.273438 -5.898438 -6.015625 -6.84375 -6.453125 -7.84375 C -6.890625 -8.851562 -7.035156 -9.859375 -6.890625 -10.859375 C -6.753906 -11.859375 -6.328125 -12.773438 -5.609375 -13.609375 C -5.023438 -14.296875 -4.359375 -14.804688 -3.609375 -15.140625 C -2.859375 -15.484375 -2.082031 -15.632812 -1.28125 -15.59375 C -0.476562 -15.5625 0.289062 -15.332031 1.03125 -14.90625 Z M -0.015625 -13.6875 "/></g></g></g></svg>