<svg xmlns="http://www.w3.org/2000/svg" xmlns:xlink="http://www.w3.org/1999/xlink" width="500" zoomAndPan="magnify" viewBox="0 0 375 374.999991" height="500" preserveAspectRatio="xMidYMid meet" version="1.0"><defs><g/><clipPath id="9dd358b15d"><path d="M 107.058594 164.285156 L 278.261719 164.285156 L 278.261719 190.683594 L 107.058594 190.683594 Z M 107.058594 164.285156 " clip-rule="nonzero"/></clipPath><clipPath id="a73229fe19"><path d="M 107.058594 192.625 L 278.261719 192.625 L 278.261719 219.300781 L 107.058594 219.300781 Z M 107.058594 192.625 " clip-rule="nonzero"/></clipPath><clipPath id="f9042da5ee"><path d="M 130 249.589844 L 255.480469 249.589844 L 255.480469 277.203125 L 130 277.203125 Z M 130 249.589844 " clip-rule="nonzero"/></clipPath><clipPath id="49dfa7054d"><path d="M 130 106.210938 L 256 106.210938 L 256 134 L 130 134 Z M 130 106.210938 " clip-rule="nonzero"/></clipPath><clipPath id="fa889e1540"><path d="M 114.84375 186 L 277.714844 186 L 277.714844 277.203125 L 114.84375 277.203125 Z M 114.84375 186 " clip-rule="nonzero"/></clipPath><clipPath id="42f1fa900a"><path d="M 124.570312 236.25 L 257.703125 236.25 L 257.703125 277.203125 L 124.570312 277.203125 Z M 124.570312 236.25 " clip-rule="nonzero"/></clipPath></defs><g clip-path="url(#9dd358b15d)"><path fill="#f27022" d="M 278.261719 190.597656 C 278.144531 181.414062 276.585938 172.582031 273.792969 164.316406 L 111.71875 164.316406 C 108.921875 172.582031 107.367188 181.414062 107.25 190.597656 L 278.261719 190.597656 " fill-opacity="1" fill-rule="nonzero"/></g><path fill="#f49334" d="M 112.503906 162.097656 L 273.003906 162.097656 C 269.417969 152.386719 264.121094 143.503906 257.472656 135.820312 L 128.035156 135.820312 C 121.390625 143.503906 116.089844 152.386719 112.503906 162.097656 " fill-opacity="1" fill-rule="nonzero"/><g clip-path="url(#a73229fe19)"><path fill="#eb362f" d="M 273.792969 219.09375 C 276.585938 210.832031 278.144531 201.996094 278.261719 192.816406 L 107.25 192.816406 C 107.367188 201.996094 108.921875 210.832031 111.71875 219.09375 L 273.792969 219.09375 " fill-opacity="1" fill-rule="nonzero"/></g><g clip-path="url(#f9042da5ee)"><path fill="#093950" d="M 130.03125 249.816406 C 145.648438 266.65625 167.96875 277.203125 192.753906 277.203125 C 217.542969 277.203125 239.859375 266.65625 255.480469 249.816406 L 130.03125 249.816406 " fill-opacity="1" fill-rule="nonzero"/></g><g clip-path="url(#49dfa7054d)"><path fill="#ffc44d" d="M 255.480469 133.597656 C 239.859375 116.753906 217.539062 106.210938 192.753906 106.210938 C 167.96875 106.210938 145.648438 116.753906 130.03125 133.597656 L 255.480469 133.597656 " fill-opacity="1" fill-rule="nonzero"/></g><path fill="#ffffff" d="M 251.84375 162.097656 C 251.84375 169.902344 245.511719 176.230469 237.703125 176.230469 C 229.894531 176.230469 223.5625 169.902344 223.5625 162.097656 C 223.5625 154.289062 229.894531 147.960938 237.703125 147.960938 C 245.511719 147.960938 251.84375 154.289062 251.84375 162.097656 " fill-opacity="1" fill-rule="nonzero"/><g clip-path="url(#fa889e1540)"><path fill="#04b09a" d="M 277.523438 202.9375 C 268.910156 192.855469 258.816406 185.324219 248.242188 186.265625 C 234.175781 187.519531 218.570312 201.558594 206.050781 215.972656 C 196.40625 205.90625 185.3125 197.941406 174.691406 198.601562 C 156.875 199.714844 131.0625 215.871094 114.960938 227.214844 C 128.453125 256.691406 158.210938 277.175781 192.753906 277.175781 C 236.164062 277.175781 272.019531 244.832031 277.523438 202.9375 " fill-opacity="1" fill-rule="nonzero"/></g><path fill="#ffffff" d="M 115.089844 227.128906 C 131.195312 215.789062 156.921875 199.714844 174.691406 198.601562 C 175.105469 198.578125 175.519531 198.5625 175.9375 198.5625 C 186.175781 198.566406 196.785156 206.300781 206.050781 215.972656 C 218.570312 201.558594 234.175781 187.519531 248.242188 186.265625 C 248.84375 186.210938 249.441406 186.1875 250.039062 186.1875 C 259.941406 186.1875 269.367188 193.402344 277.480469 202.886719 C 277.613281 201.90625 277.734375 200.917969 277.832031 199.925781 C 268.367188 189.34375 259.023438 183.964844 250.039062 183.964844 C 249.375 183.964844 248.703125 183.996094 248.046875 184.054688 C 236.066406 185.121094 221.914062 194.757812 205.964844 212.707031 C 195.105469 201.847656 185.011719 196.34375 175.9375 196.34375 C 175.476562 196.34375 175.011719 196.359375 174.554688 196.386719 C 156.851562 197.492188 132.042969 212.507812 114.167969 225.0625 C 114.464844 225.753906 114.773438 226.445312 115.089844 227.128906 " fill-opacity="1" fill-rule="nonzero"/><path fill="#093950" d="M 163.914062 254.65625 C 159.675781 237.28125 150.894531 214.773438 132.710938 198.40625 L 143.386719 197.429688 L 139.507812 194.574219 C 139.507812 194.574219 146.191406 192.515625 151.878906 193.4375 L 149.277344 190.199219 C 149.277344 190.199219 160.269531 189.824219 163.089844 191.507812 L 159.78125 187.925781 C 159.78125 187.925781 171.929688 187.355469 176.859375 190.359375 C 176.859375 190.359375 170.296875 176.929688 150.039062 179.78125 C 137.226562 181.582031 132.207031 188.691406 130.246094 193.675781 C 130.6875 189.972656 132.167969 181.953125 136.882812 178.277344 L 132.691406 178.390625 L 139.265625 170.238281 L 135.5 171.082031 L 143.5 158.738281 C 143.5 158.738281 130.554688 161.503906 126.539062 171.949219 C 123.960938 178.660156 125.503906 186.988281 126.9375 192.085938 C 124.761719 188.953125 119.71875 183.503906 110.335938 182.019531 C 96.941406 179.902344 90.660156 187.800781 90.660156 187.800781 L 101.496094 187.167969 L 98.484375 189.339844 L 108.007812 188.195312 L 106.125 190.359375 L 115.234375 191.105469 L 112.167969 193.148438 L 121.042969 195.507812 C 116.289062 195.632812 108.996094 196.753906 101.675781 201.472656 C 89.257812 209.480469 92.296875 225.332031 92.296875 225.332031 C 92.296875 225.332031 95.261719 218.238281 98.613281 215.851562 L 99.589844 219.109375 L 102.476562 211.160156 L 104.011719 214.09375 L 111.453125 205.546875 L 111.457031 208.574219 C 111.457031 208.574219 117.289062 203.582031 127.238281 198.859375 C 124.160156 201.570312 116.644531 209.214844 113.25 221.679688 C 108.917969 237.5625 123.085938 246.144531 123.085938 246.144531 L 120.535156 230.832031 L 124.917969 233.261719 C 124.917969 233.261719 122.960938 227.054688 123.527344 222.726562 L 127.351562 224.964844 C 127.351562 224.964844 125.722656 216.441406 126.421875 212.21875 L 129.757812 216.371094 C 129.757812 216.371094 127.925781 206.136719 129.894531 201.636719 C 133.925781 204.535156 148.914062 217.597656 155 254.65625 L 163.914062 254.65625 " fill-opacity="1" fill-rule="nonzero"/><path fill="#00979e" d="M 245.589844 200.328125 C 236.519531 203.660156 264.8125 205.882812 255.480469 216.0625 C 246.144531 226.238281 237.714844 230.125 253.960938 233.085938 C 259.078125 234.019531 262.34375 236.023438 264.417969 238.332031 C 271.230469 227.890625 275.824219 215.867188 277.523438 202.9375 C 268.910156 192.855469 258.816406 185.324219 248.242188 186.265625 C 247.363281 186.34375 246.480469 186.472656 245.589844 186.648438 C 245.589844 186.648438 254.65625 197 245.589844 200.328125 " fill-opacity="1" fill-rule="nonzero"/><path fill="#00979e" d="M 214.804688 241.769531 C 214.804688 241.769531 211.148438 227.316406 206.851562 215.054688 C 206.585938 215.359375 206.316406 215.664062 206.050781 215.972656 C 196.710938 206.222656 186.003906 198.441406 175.691406 198.566406 C 173.984375 201.894531 173.363281 205.824219 178.023438 207.917969 C 187.09375 211.988281 190.796875 222.722656 181.171875 226.054688 C 171.546875 229.382812 192.753906 239.023438 192.753906 239.023438 L 214.804688 241.769531 " fill-opacity="1" fill-rule="nonzero"/><path fill="#093950" d="M 226.027344 164.65625 C 216.261719 159.554688 206.949219 158.984375 200.945312 159.375 L 211.851562 155.375 L 207.75 153.15625 L 219.136719 151.164062 L 216.519531 148.660156 L 228.648438 149 L 224.605469 146.609375 L 238.324219 146.15625 C 238.324219 146.15625 229.5 136.933594 212.875 141.144531 C 201.226562 144.097656 195.503906 151.546875 193.121094 155.746094 C 194.335938 149.160156 195.320312 138.488281 191.296875 130.332031 C 185.03125 117.636719 168.40625 115.644531 168.40625 115.644531 L 179.90625 130.273438 L 175.066406 129.648438 L 184.292969 139.152344 L 178.996094 139.496094 C 185.363281 143.582031 188.15625 153.515625 189.140625 158.128906 C 186.09375 152.078125 178.949219 143.703125 162.597656 142.910156 C 136.75 141.65625 130.03125 159.335938 130.03125 159.335938 C 135.894531 154.984375 151.265625 154.296875 151.265625 154.296875 L 147.511719 159.191406 C 150.867188 156.742188 164.761719 155.945312 164.761719 155.945312 L 161.859375 160.328125 C 168.917969 158.507812 177.574219 160.328125 177.574219 160.328125 L 173.019531 164.375 L 186.578125 164.375 C 160.167969 192.921875 153.578125 231.96875 152.085938 254.4375 L 164.410156 254.4375 C 164.40625 194.546875 185.234375 172.683594 190.496094 168.117188 C 193.503906 173.558594 192.375 186.664062 192.375 186.664062 L 196.097656 181.046875 C 197.464844 186.285156 196.398438 197.214844 196.398438 197.214844 L 200.957031 193.949219 C 202.171875 199.339844 200.425781 207.386719 200.425781 207.386719 L 205.664062 203.816406 L 204.21875 223.398438 C 204.21875 223.398438 221.074219 210.953125 213.785156 191.445312 C 208.066406 176.136719 197.714844 167.371094 193.527344 164.3125 C 206.605469 169.113281 214.527344 174.730469 214.527344 174.730469 L 214.183594 170.917969 L 224.546875 180.820312 L 226.140625 176.949219 L 230.695312 186.625 L 231.550781 182.414062 C 236.046875 185.035156 240.605469 193.628906 240.605469 193.628906 C 240.605469 193.628906 242.597656 173.308594 226.027344 164.65625 " fill-opacity="1" fill-rule="nonzero"/><g clip-path="url(#42f1fa900a)"><path fill="#093950" d="M 257.65625 247.339844 C 224.855469 243.445312 175.234375 235.515625 154.207031 236.355469 C 141.699219 236.855469 131.667969 240.304688 124.808594 243.585938 C 140.4375 264.003906 165.054688 277.175781 192.753906 277.175781 C 218.71875 277.175781 241.976562 265.601562 257.65625 247.339844 " fill-opacity="1" fill-rule="nonzero"/></g><path fill="#ffffff" d="M 125.511719 244.5 C 132.265625 241.296875 142.085938 237.953125 154.25 237.464844 C 169.585938 236.839844 200.960938 241.03125 228.636719 244.71875 C 238.597656 246.046875 248.230469 247.332031 256.773438 248.351562 C 257.363281 247.683594 257.945312 247.011719 258.519531 246.324219 C 249.632812 245.277344 239.460938 243.921875 228.929688 242.519531 C 201.164062 238.820312 169.695312 234.625 154.164062 235.246094 C 141.285156 235.761719 131.058594 239.304688 124.109375 242.664062 C 124.570312 243.28125 125.035156 243.894531 125.511719 244.5 " fill-opacity="1" fill-rule="nonzero"/><g fill="#004447" fill-opacity="1"><g transform="translate(113.512824, 116.363175)"><g><path d="M 18.375 -13.890625 L 14.34375 -10.828125 L 9.625 -13.78125 L 2.328125 -8.25 L 3.9375 -2.96875 L 0 0 L -6.703125 -23.6875 L -2.78125 -26.640625 Z M 1.09375 -12.203125 L 6.109375 -15.984375 L -1.546875 -20.875 Z M 1.09375 -12.203125 "/></g></g></g><g fill="#004447" fill-opacity="1"><g transform="translate(131.289638, 103.027848)"><g><path d="M 4.578125 -6.65625 L 14.875 -11.84375 L 16.625 -8.375 L 2.203125 -1.109375 L -8.109375 -21.59375 L -3.984375 -23.671875 Z M 4.578125 -6.65625 "/></g></g></g><g fill="#004447" fill-opacity="1"><g transform="translate(148.025316, 94.526447)"><g><path d="M 11.640625 -23.5625 L 1.03125 -20.265625 L 2.640625 -15.0625 L 11.8125 -17.921875 L 12.953125 -14.21875 L 3.78125 -11.359375 L 6.671875 -2.0625 L 2.265625 -0.703125 L -4.53125 -22.609375 L 10.484375 -27.265625 Z M 11.640625 -23.5625 "/></g></g></g><g fill="#004447" fill-opacity="1"><g transform="translate(165.810952, 88.76001)"><g><path d="M 14.9375 -24.171875 C 15.925781 -23.878906 16.800781 -23.257812 17.5625 -22.3125 C 18.320312 -21.375 18.78125 -20.238281 18.9375 -18.90625 C 19.144531 -17.21875 18.796875 -15.726562 17.890625 -14.4375 C 16.984375 -13.144531 15.585938 -12.269531 13.703125 -11.8125 C 14.585938 -11.34375 15.269531 -10.945312 15.75 -10.625 C 16.238281 -10.3125 16.78125 -9.851562 17.375 -9.25 C 17.976562 -8.644531 18.742188 -7.773438 19.671875 -6.640625 L 22.765625 -2.75 L 17.265625 -2.078125 L 12.90625 -7.171875 C 11.925781 -8.304688 11.175781 -9.101562 10.65625 -9.5625 C 10.144531 -10.03125 9.625 -10.328125 9.09375 -10.453125 C 8.570312 -10.585938 7.84375 -10.597656 6.90625 -10.484375 L 5.765625 -10.34375 L 6.90625 -0.828125 L 2.328125 -0.28125 L -0.421875 -23.046875 L 9.515625 -24.25 C 10.609375 -24.375 11.597656 -24.441406 12.484375 -24.453125 C 13.367188 -24.472656 14.1875 -24.378906 14.9375 -24.171875 Z M 12.734375 -15.125 C 13.265625 -15.351562 13.664062 -15.722656 13.9375 -16.234375 C 14.21875 -16.742188 14.316406 -17.347656 14.234375 -18.046875 C 14.085938 -19.253906 13.46875 -20.023438 12.375 -20.359375 C 12.082031 -20.460938 11.734375 -20.507812 11.328125 -20.5 C 10.921875 -20.488281 10.234375 -20.425781 9.265625 -20.3125 L 4.625 -19.75 L 5.328125 -13.96875 L 9.359375 -14.453125 C 11.015625 -14.660156 12.140625 -14.882812 12.734375 -15.125 Z M 12.734375 -15.125 "/></g></g></g><g fill="#004447" fill-opacity="1"><g transform="translate(187.834453, 86.095521)"><g><path d="M 20.59375 -17.703125 L 8.234375 -18.546875 L 7.890625 -13.46875 L 19.390625 -12.6875 L 19.125 -8.828125 L 7.625 -9.609375 L 7.203125 -3.390625 L 19.984375 -2.515625 L 19.71875 1.34375 L 2.34375 0.15625 L 3.90625 -22.734375 L 20.859375 -21.578125 Z M 20.59375 -17.703125 "/></g></g></g><g fill="#004447" fill-opacity="1"><g transform="translate(208.266616, 87.404967)"><g><path d="M 15.765625 -20.046875 C 18.222656 -19.421875 20.097656 -18.363281 21.390625 -16.875 C 22.679688 -15.382812 23.070312 -13.484375 22.5625 -11.171875 L 18.015625 -12.109375 C 18.128906 -13.191406 17.953125 -14.085938 17.484375 -14.796875 C 17.015625 -15.503906 16.109375 -16.03125 14.765625 -16.375 C 13.835938 -16.613281 12.9375 -16.664062 12.0625 -16.53125 C 11.1875 -16.40625 10.644531 -15.9375 10.4375 -15.125 C 10.269531 -14.4375 10.484375 -13.800781 11.078125 -13.21875 C 11.679688 -12.644531 12.835938 -11.921875 14.546875 -11.046875 C 16.109375 -10.222656 17.378906 -9.453125 18.359375 -8.734375 C 19.335938 -8.015625 20.09375 -7.0625 20.625 -5.875 C 21.164062 -4.695312 21.222656 -3.269531 20.796875 -1.59375 C 20.578125 -0.738281 20.148438 0.109375 19.515625 0.953125 C 18.878906 1.804688 18.03125 2.460938 16.96875 2.921875 C 16.164062 3.285156 15.1875 3.472656 14.03125 3.484375 C 12.875 3.503906 11.582031 3.335938 10.15625 2.984375 C 7.382812 2.273438 5.410156 1.109375 4.234375 -0.515625 C 3.066406 -2.148438 2.644531 -4.296875 2.96875 -6.953125 L 7.40625 -6.234375 C 7.15625 -3.285156 8.410156 -1.457031 11.171875 -0.75 C 12.617188 -0.382812 13.785156 -0.410156 14.671875 -0.828125 C 15.566406 -1.253906 16.117188 -1.882812 16.328125 -2.71875 C 16.484375 -3.320312 16.421875 -3.847656 16.140625 -4.296875 C 15.867188 -4.742188 15.375 -5.191406 14.65625 -5.640625 C 13.945312 -6.097656 12.816406 -6.734375 11.265625 -7.546875 C 9.304688 -8.535156 7.835938 -9.722656 6.859375 -11.109375 C 5.878906 -12.503906 5.617188 -14.101562 6.078125 -15.90625 C 6.328125 -16.882812 6.820312 -17.773438 7.5625 -18.578125 C 8.300781 -19.390625 9.351562 -19.960938 10.71875 -20.296875 C 12.09375 -20.640625 13.773438 -20.554688 15.765625 -20.046875 Z M 15.765625 -20.046875 "/></g></g></g><g fill="#004447" fill-opacity="1"><g transform="translate(228.118412, 92.267985)"><g><path d="M 11.75 -8.578125 L 24.5625 -13.84375 L 30.1875 -11.21875 L 18.609375 -6.765625 L 20.921875 9.765625 L 15.5 7.234375 L 14.328125 -5.1875 L 9.28125 -3.296875 L 6.359375 2.96875 L 2.1875 1.015625 L 11.890625 -19.765625 L 16.0625 -17.8125 Z M 11.75 -8.578125 "/></g></g></g><g fill="#004447" fill-opacity="1"><g transform="translate(248.240438, 101.445468)"><g><path d="M 23.890625 -11.265625 C 25.835938 -9.828125 27.175781 -8.203125 27.90625 -6.390625 C 28.632812 -4.578125 28.796875 -2.695312 28.390625 -0.75 C 27.992188 1.1875 27.113281 3.070312 25.75 4.90625 C 24.289062 6.851562 22.675781 8.269531 20.90625 9.15625 C 19.132812 10.050781 17.296875 10.382812 15.390625 10.15625 C 13.492188 9.925781 11.632812 9.140625 9.8125 7.796875 C 7.914062 6.378906 6.585938 4.769531 5.828125 2.96875 C 5.066406 1.175781 4.867188 -0.675781 5.234375 -2.59375 C 5.609375 -4.507812 6.488281 -6.398438 7.875 -8.265625 C 9.3125 -10.203125 10.910156 -11.640625 12.671875 -12.578125 C 14.429688 -13.523438 16.265625 -13.894531 18.171875 -13.6875 C 20.085938 -13.488281 21.992188 -12.679688 23.890625 -11.265625 Z M 11.78125 -5.53125 C 10.707031 -4.09375 10.050781 -2.726562 9.8125 -1.4375 C 9.570312 -0.15625 9.671875 0.988281 10.109375 2 C 10.554688 3.019531 11.242188 3.875 12.171875 4.5625 C 13.023438 5.195312 13.972656 5.597656 15.015625 5.765625 C 16.054688 5.941406 17.179688 5.742188 18.390625 5.171875 C 19.609375 4.597656 20.796875 3.53125 21.953125 1.96875 C 23.316406 0.132812 24.035156 -1.664062 24.109375 -3.4375 C 24.179688 -5.207031 23.320312 -6.753906 21.53125 -8.078125 C 19.769531 -9.390625 18.046875 -9.753906 16.359375 -9.171875 C 14.679688 -8.585938 13.15625 -7.375 11.78125 -5.53125 Z M 11.78125 -5.53125 "/></g></g></g><g fill="#545454" fill-opacity="1"><g transform="translate(101.046881, 261.773552)"><g><path d="M 15.328125 1.125 L 12.6875 -2.15625 L 3.9375 4.890625 L 2.875 3.578125 L 11.625 -3.46875 L 9 -6.75 L 10.171875 -7.6875 L 16.5 0.1875 Z M 15.328125 1.125 "/></g></g></g><g fill="#545454" fill-opacity="1"><g transform="translate(109.132717, 271.690264)"><g><path d="M 8.5 8.3125 L 7.125 6.96875 L 8.765625 3.15625 L 4.96875 -0.546875 L 1.28125 1.25 L -0.015625 -0.015625 L 12.390625 -5.703125 L 13.6875 -4.4375 Z M 9.875 -2.890625 L 6.265625 -1.1875 L 9.359375 1.8125 L 11.15625 -2.25 C 11.375 -2.757812 11.675781 -3.382812 12.0625 -4.125 C 12.03125 -4.09375 11.769531 -3.929688 11.28125 -3.640625 C 10.800781 -3.347656 10.332031 -3.097656 9.875 -2.890625 Z M 9.875 -2.890625 "/></g></g></g><g fill="#545454" fill-opacity="1"><g transform="translate(119.090086, 281.250444)"><g><path d="M 12.421875 -6.8125 C 13.578125 -5.9375 14.285156 -4.976562 14.546875 -3.9375 C 14.804688 -2.894531 14.601562 -1.882812 13.9375 -0.90625 L 12.578125 -1.796875 C 12.992188 -2.503906 13.125 -3.164062 12.96875 -3.78125 C 12.8125 -4.394531 12.34375 -4.992188 11.5625 -5.578125 C 10.832031 -6.140625 10.160156 -6.4375 9.546875 -6.46875 C 8.929688 -6.507812 8.453125 -6.300781 8.109375 -5.84375 C 7.878906 -5.539062 7.769531 -5.210938 7.78125 -4.859375 C 7.789062 -4.503906 7.929688 -4.160156 8.203125 -3.828125 C 8.253906 -3.742188 8.46875 -3.445312 8.84375 -2.9375 C 9.21875 -2.425781 9.710938 -1.804688 10.328125 -1.078125 C 11.066406 -0.203125 11.460938 0.65625 11.515625 1.5 C 11.578125 2.351562 11.363281 3.101562 10.875 3.75 C 10.457031 4.289062 9.921875 4.679688 9.265625 4.921875 C 8.609375 5.160156 7.894531 5.195312 7.125 5.03125 C 6.351562 4.875 5.582031 4.503906 4.8125 3.921875 C 3.925781 3.242188 3.269531 2.519531 2.84375 1.75 C 2.414062 0.976562 2.222656 0.207031 2.265625 -0.5625 C 2.316406 -1.34375 2.597656 -2.082031 3.109375 -2.78125 L 4.484375 -1.921875 C 3.910156 -1.078125 3.769531 -0.25 4.0625 0.5625 C 4.351562 1.382812 4.894531 2.09375 5.6875 2.6875 C 6.46875 3.28125 7.203125 3.585938 7.890625 3.609375 C 8.585938 3.628906 9.144531 3.363281 9.5625 2.8125 C 10.125 2.0625 9.921875 1.085938 8.953125 -0.109375 L 8.3125 -0.90625 C 7.894531 -1.382812 7.4375 -1.96875 6.9375 -2.65625 C 6.4375 -3.332031 6.171875 -4.035156 6.140625 -4.765625 C 6.117188 -5.492188 6.320312 -6.144531 6.75 -6.71875 C 7.15625 -7.25 7.660156 -7.617188 8.265625 -7.828125 C 8.867188 -8.035156 9.53125 -8.054688 10.25 -7.890625 C 10.96875 -7.722656 11.691406 -7.363281 12.421875 -6.8125 Z M 12.421875 -6.8125 "/></g></g></g><g fill="#545454" fill-opacity="1"><g transform="translate(130.157483, 289.473651)"><g><path d="M 14.71875 -4.390625 L 11.09375 -6.515625 L 5.421875 3.171875 L 3.96875 2.328125 L 9.640625 -7.359375 L 6.015625 -9.484375 L 6.78125 -10.78125 L 15.484375 -5.6875 Z M 14.71875 -4.390625 "/></g></g></g><g fill="#545454" fill-opacity="1"><g transform="translate(141.241512, 295.866448)"><g><path d="M 14.21875 -6.0625 L 7.328125 -9.0625 L 5.765625 -5.484375 L 12.21875 -2.671875 L 11.625 -1.296875 L 5.171875 -4.109375 L 3.4375 -0.140625 L 10.59375 2.96875 L 10 4.34375 L 1.296875 0.5625 L 6.375 -11.109375 L 14.8125 -7.4375 Z M 14.21875 -6.0625 "/></g></g></g><g fill="#545454" fill-opacity="1"><g transform="translate(153.901021, 301.104846)"><g/></g></g><g fill="#545454" fill-opacity="1"><g transform="translate(160.328111, 303.271922)"><g><path d="M 12.765625 -8.546875 L 8.671875 -9.5 L 6.109375 1.4375 L 4.46875 1.046875 L 7.03125 -9.890625 L 2.9375 -10.84375 L 3.28125 -12.296875 L 13.109375 -10 Z M 12.765625 -8.546875 "/></g></g></g><g fill="#545454" fill-opacity="1"><g transform="translate(172.815107, 306.136663)"><g><path d="M 3.890625 -7.125 L 10.453125 -6.421875 L 11 -11.625 L 12.703125 -11.453125 L 11.359375 1.203125 L 9.65625 1.03125 L 10.296875 -4.953125 L 3.734375 -5.65625 L 3.09375 0.328125 L 1.40625 0.15625 L 2.75 -12.5 L 4.4375 -12.328125 Z M 3.890625 -7.125 "/></g></g></g><g fill="#545454" fill-opacity="1"><g transform="translate(187.541945, 307.545759)"><g><path d="M 10.359375 -11.46875 L 2.84375 -11.3125 L 2.921875 -7.40625 L 9.96875 -7.5625 L 10.015625 -6.0625 L 2.96875 -5.90625 L 3.0625 -1.578125 L 10.875 -1.75 L 10.90625 -0.25 L 1.40625 -0.03125 L 1.109375 -12.765625 L 10.3125 -12.96875 Z M 10.359375 -11.46875 "/></g></g></g><g fill="#545454" fill-opacity="1"><g transform="translate(201.231213, 306.989449)"><g/></g></g><g fill="#545454" fill-opacity="1"><g transform="translate(207.974376, 306.259522)"><g><path d="M 7.546875 -13.015625 L 0.78125 -11.625 L 1.578125 -7.765625 L 7.4375 -8.96875 L 7.734375 -7.5 L 1.875 -6.296875 L 3.046875 -0.625 L 1.390625 -0.28125 L -1.171875 -12.75 L 7.25 -14.484375 Z M 7.546875 -13.015625 "/></g></g></g><g fill="#545454" fill-opacity="1"><g transform="translate(220.49016, 303.598815)"><g><path d="M 6.5 -14.015625 L -0.625 -11.640625 L 0.609375 -7.9375 L 7.296875 -10.171875 L 7.78125 -8.75 L 1.09375 -6.515625 L 2.46875 -2.40625 L 9.875 -4.875 L 10.34375 -3.453125 L 1.328125 -0.453125 L -2.703125 -12.53125 L 6.03125 -15.4375 Z M 6.5 -14.015625 "/></g></g></g><g fill="#545454" fill-opacity="1"><g transform="translate(233.543842, 299.110247)"><g><path d="M 4.703125 -14.703125 L -2.0625 -11.46875 L -0.375 -7.953125 L 5.96875 -10.984375 L 6.625 -9.625 L 0.28125 -6.59375 L 2.15625 -2.703125 L 9.203125 -6.078125 L 9.84375 -4.71875 L 1.265625 -0.609375 L -4.234375 -12.09375 L 4.0625 -16.0625 Z M 4.703125 -14.703125 "/></g></g></g><g fill="#545454" fill-opacity="1"><g transform="translate(245.892384, 293.011497)"><g><path d="M 1.75 -2.875 L 7.078125 -6.21875 L 7.875 -4.953125 L 1.125 -0.703125 L -5.65625 -11.484375 L -4.234375 -12.390625 Z M 1.75 -2.875 "/></g></g></g><g fill="#545454" fill-opacity="1"><g transform="translate(255.699531, 286.62598)"><g><path d="M 2.65625 -2 L 1.3125 -0.984375 L -6.34375 -11.15625 L -5 -12.171875 Z M 2.65625 -2 "/></g></g></g><g fill="#545454" fill-opacity="1"><g transform="translate(261.205053, 282.612081)"><g><path d="M 5.390625 -8.640625 L -1.375 -16.015625 L -0.171875 -17.125 L 8.4375 -7.734375 L 7.15625 -6.5625 L -4.53125 -9.40625 L 2.21875 -2.03125 L 1.03125 -0.953125 L -7.578125 -10.34375 L -6.3125 -11.5 Z M 5.390625 -8.640625 "/></g></g></g><g fill="#545454" fill-opacity="1"><g transform="translate(272.066485, 272.519055)"><g><path d="M -5.3125 -13.890625 C -3.507812 -16.054688 -1.4375 -16.582031 0.90625 -15.46875 L 0.25 -14.046875 C 0.21875 -14.054688 0.0976562 -14.109375 -0.109375 -14.203125 C -0.328125 -14.304688 -0.578125 -14.378906 -0.859375 -14.421875 C -1.140625 -14.472656 -1.398438 -14.488281 -1.640625 -14.46875 C -2.617188 -14.34375 -3.460938 -13.847656 -4.171875 -12.984375 C -5.117188 -11.847656 -5.503906 -10.675781 -5.328125 -9.46875 C -5.148438 -8.257812 -4.453125 -7.148438 -3.234375 -6.140625 C -1.941406 -5.078125 -0.6875 -4.601562 0.53125 -4.71875 C 1.75 -4.832031 2.84375 -5.472656 3.8125 -6.640625 C 4.1875 -7.085938 4.488281 -7.671875 4.71875 -8.390625 C 4.945312 -9.109375 5.054688 -9.707031 5.046875 -10.1875 L 3.203125 -11.71875 L 0.796875 -8.828125 L -0.34375 -9.765625 L 3.09375 -13.90625 L 6.71875 -10.921875 C 6.695312 -9.847656 6.539062 -8.875 6.25 -8 C 5.957031 -7.125 5.507812 -6.316406 4.90625 -5.578125 C 4.082031 -4.585938 3.148438 -3.882812 2.109375 -3.46875 C 1.066406 -3.0625 -0.00390625 -2.960938 -1.109375 -3.171875 C -2.210938 -3.378906 -3.265625 -3.894531 -4.265625 -4.71875 C -5.265625 -5.550781 -5.988281 -6.484375 -6.4375 -7.515625 C -6.882812 -8.546875 -7.019531 -9.609375 -6.84375 -10.703125 C -6.664062 -11.804688 -6.15625 -12.867188 -5.3125 -13.890625 Z M -5.3125 -13.890625 "/></g></g></g></svg>