<svg xmlns="http://www.w3.org/2000/svg" version="1.1" xmlns:xlink="http://www.w3.org/1999/xlink" xmlns:svgjs="http://svgjs.com/svgjs" width="1920" height="1080" preserveAspectRatio="none" viewBox="0 0 1920 1080"><g mask="url(&quot;#SvgjsMask1051&quot;)" fill="none"><rect width="1920" height="1080" x="0" y="0" fill="rgba(238, 255, 138, 1)"></rect><path d="M41 1080L1121 0L1760 0L680 1080z" fill="url(#SvgjsLinearGradient1052)"></path><path d="M724.6 1080L1804.6 0L2322.1 0L1242.1 1080z" fill="url(#SvgjsLinearGradient1052)"></path><path d="M1835 1080L755 0L402.5 0L1482.5 1080z" fill="url(#SvgjsLinearGradient1053)"></path><path d="M1261.4 1080L181.4000000000001 0L-241.5999999999999 0L838.4000000000001 1080z" fill="url(#SvgjsLinearGradient1053)"></path><path d="M995.7901507862774 1080L1920 155.79015078627742L1920 1080z" fill="url(#SvgjsLinearGradient1052)"></path><path d="M0 1080L924.2098492137226 1080L 0 155.79015078627742z" fill="url(#SvgjsLinearGradient1053)"></path></g><defs><mask id="SvgjsMask1051"><rect width="1920" height="1080" fill="#ffffff"></rect></mask><linearGradient x1="0%" y1="100%" x2="100%" y2="0%" id="SvgjsLinearGradient1052"><stop stop-color="rgba(38, 90, 7, 0.2)" offset="0"></stop><stop stop-opacity="0" stop-color="rgba(38, 90, 7, 0.2)" offset="0.66"></stop></linearGradient><linearGradient x1="100%" y1="100%" x2="0%" y2="0%" id="SvgjsLinearGradient1053"><stop stop-color="rgba(38, 90, 7, 0.2)" offset="0"></stop><stop stop-opacity="0" stop-color="rgba(38, 90, 7, 0.2)" offset="0.66"></stop></linearGradient></defs></svg>