<svg id="visual" viewBox="0 0 900 1200" width="900" height="1200" xmlns="http://www.w3.org/2000/svg" xmlns:xlink="http://www.w3.org/1999/xlink" version="1.1"><path d="M0 313L53 313L53 313L106 313L106 349L159 349L159 205L212 205L212 181L265 181L265 265L318 265L318 193L371 193L371 229L424 229L424 397L476 397L476 505L529 505L529 433L582 433L582 169L635 169L635 373L688 373L688 421L741 421L741 361L794 361L794 409L847 409L847 373L900 373L900 481L900 0L900 0L847 0L847 0L794 0L794 0L741 0L741 0L688 0L688 0L635 0L635 0L582 0L582 0L529 0L529 0L476 0L476 0L424 0L424 0L371 0L371 0L318 0L318 0L265 0L265 0L212 0L212 0L159 0L159 0L106 0L106 0L53 0L53 0L0 0Z" fill="#becbbf"></path><path d="M0 493L53 493L53 469L106 469L106 541L159 541L159 277L212 277L212 253L265 253L265 457L318 457L318 301L371 301L371 313L424 313L424 529L476 529L476 649L529 649L529 553L582 553L582 253L635 253L635 481L688 481L688 589L741 589L741 553L794 553L794 505L847 505L847 493L900 493L900 589L900 479L900 371L847 371L847 407L794 407L794 359L741 359L741 419L688 419L688 371L635 371L635 167L582 167L582 431L529 431L529 503L476 503L476 395L424 395L424 227L371 227L371 191L318 191L318 263L265 263L265 179L212 179L212 203L159 203L159 347L106 347L106 311L53 311L53 311L0 311Z" fill="#9fbda7"></path><path d="M0 745L53 745L53 925L106 925L106 769L159 769L159 781L212 781L212 697L265 697L265 913L318 913L318 913L371 913L371 709L424 709L424 841L476 841L476 841L529 841L529 733L582 733L582 745L635 745L635 901L688 901L688 877L741 877L741 745L794 745L794 673L847 673L847 805L900 805L900 901L900 587L900 491L847 491L847 503L794 503L794 551L741 551L741 587L688 587L688 479L635 479L635 251L582 251L582 551L529 551L529 647L476 647L476 527L424 527L424 311L371 311L371 299L318 299L318 455L265 455L265 251L212 251L212 275L159 275L159 539L106 539L106 467L53 467L53 491L0 491Z" fill="#7cb092"></path><path d="M0 961L53 961L53 1033L106 1033L106 877L159 877L159 961L212 961L212 961L265 961L265 1045L318 1045L318 997L371 997L371 973L424 973L424 925L476 925L476 1045L529 1045L529 853L582 853L582 973L635 973L635 1033L688 1033L688 997L741 997L741 961L794 961L794 889L847 889L847 925L900 925L900 1093L900 899L900 803L847 803L847 671L794 671L794 743L741 743L741 875L688 875L688 899L635 899L635 743L582 743L582 731L529 731L529 839L476 839L476 839L424 839L424 707L371 707L371 911L318 911L318 911L265 911L265 695L212 695L212 779L159 779L159 767L106 767L106 923L53 923L53 743L0 743Z" fill="#53a281"></path><path d="M0 1201L53 1201L53 1201L106 1201L106 1201L159 1201L159 1201L212 1201L212 1201L265 1201L265 1201L318 1201L318 1201L371 1201L371 1201L424 1201L424 1201L476 1201L476 1201L529 1201L529 1201L582 1201L582 1201L635 1201L635 1201L688 1201L688 1201L741 1201L741 1201L794 1201L794 1201L847 1201L847 1201L900 1201L900 1201L900 1091L900 923L847 923L847 887L794 887L794 959L741 959L741 995L688 995L688 1031L635 1031L635 971L582 971L582 851L529 851L529 1043L476 1043L476 923L424 923L424 971L371 971L371 995L318 995L318 1043L265 1043L265 959L212 959L212 959L159 959L159 875L106 875L106 1031L53 1031L53 959L0 959Z" fill="#009473"></path></svg>