<svg id="visual" viewBox="0 0 1440 560" width="1440" height="560" xmlns="http://www.w3.org/2000/svg" xmlns:xlink="http://www.w3.org/1999/xlink" version="1.1"><path d="M0 208L180 270L360 214L540 119L720 147L900 208L1080 119L1260 119L1440 191L1440 0L1260 0L1080 0L900 0L720 0L540 0L360 0L180 0L0 0Z" fill="#3fe1b1"></path><path d="M0 320L180 343L360 292L540 180L720 242L900 298L1080 231L1260 225L1440 253L1440 189L1260 117L1080 117L900 206L720 145L540 117L360 212L180 268L0 206Z" fill="#2fcfa8"></path><path d="M0 421L180 455L360 460L540 432L720 432L900 438L1080 427L1260 376L1440 410L1440 251L1260 223L1080 229L900 296L720 240L540 178L360 290L180 341L0 318Z" fill="#1fbe9f"></path><path d="M0 466L180 499L360 499L540 516L720 477L900 494L1080 477L1260 460L1440 488L1440 408L1260 374L1080 425L900 436L720 430L540 430L360 458L180 453L0 419Z" fill="#0fad95"></path><path d="M0 561L180 561L360 561L540 561L720 561L900 561L1080 561L1260 561L1440 561L1440 486L1260 458L1080 475L900 492L720 475L540 514L360 497L180 497L0 464Z" fill="#009c8a"></path></svg>