<svg id="visual" viewBox="0 0 1440 560" width="1440" height="560" xmlns="http://www.w3.org/2000/svg" xmlns:xlink="http://www.w3.org/1999/xlink" version="1.1"><path d="M0 96L21.8 90.5C43.7 85 87.3 74 131 64.7C174.7 55.3 218.3 47.7 262 49.5C305.7 51.3 349.3 62.7 393 70.2C436.7 77.7 480.3 81.3 524 77.5C567.7 73.7 611.3 62.3 654.8 64.2C698.3 66 741.7 81 785.2 86.7C828.7 92.3 872.3 88.7 916 87.8C959.7 87 1003.3 89 1047 81.5C1090.7 74 1134.3 57 1178 48.5C1221.7 40 1265.3 40 1309 40C1352.7 40 1396.3 40 1418.2 40L1440 40L1440 0L1418.2 0C1396.3 0 1352.7 0 1309 0C1265.3 0 1221.7 0 1178 0C1134.3 0 1090.7 0 1047 0C1003.3 0 959.7 0 916 0C872.3 0 828.7 0 785.2 0C741.7 0 698.3 0 654.8 0C611.3 0 567.7 0 524 0C480.3 0 436.7 0 393 0C349.3 0 305.7 0 262 0C218.3 0 174.7 0 131 0C87.3 0 43.7 0 21.8 0L0 0Z" fill="#eab6b6"></path><path d="M0 236L21.8 227.7C43.7 219.3 87.3 202.7 131 188.7C174.7 174.7 218.3 163.3 262 159.5C305.7 155.7 349.3 159.3 393 165C436.7 170.7 480.3 178.3 524 173.7C567.7 169 611.3 152 654.8 159.5C698.3 167 741.7 199 785.2 209.3C828.7 219.7 872.3 208.3 916 197C959.7 185.7 1003.3 174.3 1047 166.8C1090.7 159.3 1134.3 155.7 1178 151C1221.7 146.3 1265.3 140.7 1309 132.3C1352.7 124 1396.3 113 1418.2 107.5L1440 102L1440 38L1418.2 38C1396.3 38 1352.7 38 1309 38C1265.3 38 1221.7 38 1178 46.5C1134.3 55 1090.7 72 1047 79.5C1003.3 87 959.7 85 916 85.8C872.3 86.7 828.7 90.3 785.2 84.7C741.7 79 698.3 64 654.8 62.2C611.3 60.3 567.7 71.7 524 75.5C480.3 79.3 436.7 75.7 393 68.2C349.3 60.7 305.7 49.3 262 47.5C218.3 45.7 174.7 53.3 131 62.7C87.3 72 43.7 83 21.8 88.5L0 94Z" fill="#e4a6a6"></path><path d="M0 359L21.8 347C43.7 335 87.3 311 131 297C174.7 283 218.3 279 262 274.3C305.7 269.7 349.3 264.3 393 265.3C436.7 266.3 480.3 273.7 524 280.2C567.7 286.7 611.3 292.3 654.8 306.3C698.3 320.3 741.7 342.7 785.2 341.7C828.7 340.7 872.3 316.3 916 303.3C959.7 290.3 1003.3 288.7 1047 281.2C1090.7 273.7 1134.3 260.3 1178 267.7C1221.7 275 1265.3 303 1309 318C1352.7 333 1396.3 335 1418.2 336L1440 337L1440 100L1418.2 105.5C1396.3 111 1352.7 122 1309 130.3C1265.3 138.7 1221.7 144.3 1178 149C1134.3 153.7 1090.7 157.3 1047 164.8C1003.3 172.3 959.7 183.7 916 195C872.3 206.3 828.7 217.7 785.2 207.3C741.7 197 698.3 165 654.8 157.5C611.3 150 567.7 167 524 171.7C480.3 176.3 436.7 168.7 393 163C349.3 157.3 305.7 153.7 262 157.5C218.3 161.3 174.7 172.7 131 186.7C87.3 200.7 43.7 217.3 21.8 225.7L0 234Z" fill="#de9696"></path><path d="M0 505L21.8 506.8C43.7 508.7 87.3 512.3 131 504.8C174.7 497.3 218.3 478.7 262 475C305.7 471.3 349.3 482.7 393 490.2C436.7 497.7 480.3 501.3 524 504.2C567.7 507 611.3 509 654.8 508C698.3 507 741.7 503 785.2 494.5C828.7 486 872.3 473 916 465.7C959.7 458.3 1003.3 456.7 1047 460.5C1090.7 464.3 1134.3 473.7 1178 470.8C1221.7 468 1265.3 453 1309 455.7C1352.7 458.3 1396.3 478.7 1418.2 488.8L1440 499L1440 335L1418.2 334C1396.3 333 1352.7 331 1309 316C1265.3 301 1221.7 273 1178 265.7C1134.3 258.3 1090.7 271.7 1047 279.2C1003.3 286.7 959.7 288.3 916 301.3C872.3 314.3 828.7 338.7 785.2 339.7C741.7 340.7 698.3 318.3 654.8 304.3C611.3 290.3 567.7 284.7 524 278.2C480.3 271.7 436.7 264.3 393 263.3C349.3 262.3 305.7 267.7 262 272.3C218.3 277 174.7 281 131 295C87.3 309 43.7 333 21.8 345L0 357Z" fill="#d28483"></path><path d="M0 561L21.8 561C43.7 561 87.3 561 131 561C174.7 561 218.3 561 262 561C305.7 561 349.3 561 393 561C436.7 561 480.3 561 524 561C567.7 561 611.3 561 654.8 561C698.3 561 741.7 561 785.2 561C828.7 561 872.3 561 916 561C959.7 561 1003.3 561 1047 561C1090.7 561 1134.3 561 1178 561C1221.7 561 1265.3 561 1309 561C1352.7 561 1396.3 561 1418.2 561L1440 561L1440 497L1418.2 486.8C1396.3 476.7 1352.7 456.3 1309 453.7C1265.3 451 1221.7 466 1178 468.8C1134.3 471.7 1090.7 462.3 1047 458.5C1003.3 454.7 959.7 456.3 916 463.7C872.3 471 828.7 484 785.2 492.5C741.7 501 698.3 505 654.8 506C611.3 507 567.7 505 524 502.2C480.3 499.3 436.7 495.7 393 488.2C349.3 480.7 305.7 469.3 262 473C218.3 476.7 174.7 495.3 131 502.8C87.3 510.3 43.7 506.7 21.8 504.8L0 503Z" fill="#c57371"></path></svg>