<svg id="visual" viewBox="0 0 1200 450" width="1200" height="450" xmlns="http://www.w3.org/2000/svg" xmlns:xlink="http://www.w3.org/1999/xlink" version="1.1"><path d="M0 109L109 37L218 100L327 82L436 105L545 100L655 69L764 55L873 55L982 73L1091 118L1200 42L1200 0L1091 0L982 0L873 0L764 0L655 0L545 0L436 0L327 0L218 0L109 0L0 0Z" fill="#d10054"></path><path d="M0 204L109 118L218 172L327 123L436 195L545 132L655 159L764 105L873 100L982 154L1091 159L1200 136L1200 40L1091 116L982 71L873 53L764 53L655 67L545 98L436 103L327 80L218 98L109 35L0 107Z" fill="#ef515b"></path><path d="M0 357L109 307L218 285L327 280L436 343L545 289L655 258L764 186L873 235L982 325L1091 303L1200 226L1200 134L1091 157L982 152L873 98L764 103L655 157L545 130L436 193L327 121L218 170L109 116L0 202Z" fill="#ff6f61"></path><path d="M0 411L109 388L218 415L327 411L436 406L545 384L655 406L764 411L873 402L982 397L1091 397L1200 420L1200 224L1091 301L982 323L873 233L764 184L655 256L545 287L436 341L327 278L218 283L109 305L0 355Z" fill="#ef515b"></path><path d="M0 451L109 451L218 451L327 451L436 451L545 451L655 451L764 451L873 451L982 451L1091 451L1200 451L1200 418L1091 395L982 395L873 400L764 409L655 404L545 382L436 404L327 409L218 413L109 386L0 409Z" fill="#d10054"></path></svg>