<svg id="visual" viewBox="0 0 1440 560" width="1440" height="560" xmlns="http://www.w3.org/2000/svg" xmlns:xlink="http://www.w3.org/1999/xlink" version="1.1"><path d="M0 79L21.8 80C43.7 81 87.3 83 131 94.3C174.7 105.7 218.3 126.3 262 124.5C305.7 122.7 349.3 98.3 393 98.3C436.7 98.3 480.3 122.7 524 130.2C567.7 137.7 611.3 128.3 654.8 127.3C698.3 126.3 741.7 133.7 785.2 136.3C828.7 139 872.3 137 916 126.7C959.7 116.3 1003.3 97.7 1047 88.3C1090.7 79 1134.3 79 1178 85.7C1221.7 92.3 1265.3 105.7 1309 118.8C1352.7 132 1396.3 145 1418.2 151.5L1440 158L1440 0L1418.2 0C1396.3 0 1352.7 0 1309 0C1265.3 0 1221.7 0 1178 0C1134.3 0 1090.7 0 1047 0C1003.3 0 959.7 0 916 0C872.3 0 828.7 0 785.2 0C741.7 0 698.3 0 654.8 0C611.3 0 567.7 0 524 0C480.3 0 436.7 0 393 0C349.3 0 305.7 0 262 0C218.3 0 174.7 0 131 0C87.3 0 43.7 0 21.8 0L0 0Z" fill="#dcd0bf"></path><path d="M0 135L21.8 138.8C43.7 142.7 87.3 150.3 131 158.8C174.7 167.3 218.3 176.7 262 178.5C305.7 180.3 349.3 174.7 393 182.2C436.7 189.7 480.3 210.3 524 214C567.7 217.7 611.3 204.3 654.8 197.7C698.3 191 741.7 191 785.2 189.2C828.7 187.3 872.3 183.7 916 172.5C959.7 161.3 1003.3 142.7 1047 131.5C1090.7 120.3 1134.3 116.7 1178 121.3C1221.7 126 1265.3 139 1309 159.5C1352.7 180 1396.3 208 1418.2 222L1440 236L1440 156L1418.2 149.5C1396.3 143 1352.7 130 1309 116.8C1265.3 103.7 1221.7 90.3 1178 83.7C1134.3 77 1090.7 77 1047 86.3C1003.3 95.7 959.7 114.3 916 124.7C872.3 135 828.7 137 785.2 134.3C741.7 131.7 698.3 124.3 654.8 125.3C611.3 126.3 567.7 135.7 524 128.2C480.3 120.7 436.7 96.3 393 96.3C349.3 96.3 305.7 120.7 262 122.5C218.3 124.3 174.7 103.7 131 92.3C87.3 81 43.7 79 21.8 78L0 77Z" fill="#d4c5b1"></path><path d="M0 203L21.8 208.5C43.7 214 87.3 225 131 238C174.7 251 218.3 266 262 265.2C305.7 264.3 349.3 247.7 393 245.8C436.7 244 480.3 257 524 264.3C567.7 271.7 611.3 273.3 654.8 268.7C698.3 264 741.7 253 785.2 244.7C828.7 236.3 872.3 230.7 916 231.5C959.7 232.3 1003.3 239.7 1047 231.3C1090.7 223 1134.3 199 1178 201C1221.7 203 1265.3 231 1309 248.7C1352.7 266.3 1396.3 273.7 1418.2 277.3L1440 281L1440 234L1418.2 220C1396.3 206 1352.7 178 1309 157.5C1265.3 137 1221.7 124 1178 119.3C1134.3 114.7 1090.7 118.3 1047 129.5C1003.3 140.7 959.7 159.3 916 170.5C872.3 181.7 828.7 185.3 785.2 187.2C741.7 189 698.3 189 654.8 195.7C611.3 202.3 567.7 215.7 524 212C480.3 208.3 436.7 187.7 393 180.2C349.3 172.7 305.7 178.3 262 176.5C218.3 174.7 174.7 165.3 131 156.8C87.3 148.3 43.7 140.7 21.8 136.8L0 133Z" fill="#cdbaa4"></path><path d="M0 371L21.8 367.2C43.7 363.3 87.3 355.7 131 370.5C174.7 385.3 218.3 422.7 262 426.5C305.7 430.3 349.3 400.7 393 383C436.7 365.3 480.3 359.7 524 356.8C567.7 354 611.3 354 654.8 353C698.3 352 741.7 350 785.2 364.8C828.7 379.7 872.3 411.3 916 428.2C959.7 445 1003.3 447 1047 445.2C1090.7 443.3 1134.3 437.7 1178 432C1221.7 426.3 1265.3 420.7 1309 412.3C1352.7 404 1396.3 393 1418.2 387.5L1440 382L1440 279L1418.2 275.3C1396.3 271.7 1352.7 264.3 1309 246.7C1265.3 229 1221.7 201 1178 199C1134.3 197 1090.7 221 1047 229.3C1003.3 237.7 959.7 230.3 916 229.5C872.3 228.7 828.7 234.3 785.2 242.7C741.7 251 698.3 262 654.8 266.7C611.3 271.3 567.7 269.7 524 262.3C480.3 255 436.7 242 393 243.8C349.3 245.7 305.7 262.3 262 263.2C218.3 264 174.7 249 131 236C87.3 223 43.7 212 21.8 206.5L0 201Z" fill="#beaa92"></path><path d="M0 561L21.8 561C43.7 561 87.3 561 131 561C174.7 561 218.3 561 262 561C305.7 561 349.3 561 393 561C436.7 561 480.3 561 524 561C567.7 561 611.3 561 654.8 561C698.3 561 741.7 561 785.2 561C828.7 561 872.3 561 916 561C959.7 561 1003.3 561 1047 561C1090.7 561 1134.3 561 1178 561C1221.7 561 1265.3 561 1309 561C1352.7 561 1396.3 561 1418.2 561L1440 561L1440 380L1418.2 385.5C1396.3 391 1352.7 402 1309 410.3C1265.3 418.7 1221.7 424.3 1178 430C1134.3 435.7 1090.7 441.3 1047 443.2C1003.3 445 959.7 443 916 426.2C872.3 409.3 828.7 377.7 785.2 362.8C741.7 348 698.3 350 654.8 351C611.3 352 567.7 352 524 354.8C480.3 357.7 436.7 363.3 393 381C349.3 398.7 305.7 428.3 262 424.5C218.3 420.7 174.7 383.3 131 368.5C87.3 353.7 43.7 361.3 21.8 365.2L0 369Z" fill="#b09a81"></path></svg>