<svg id="visual" viewBox="0 0 1440 560" width="1440" height="560" xmlns="http://www.w3.org/2000/svg" xmlns:xlink="http://www.w3.org/1999/xlink" version="1.1"><path d="M0 152L21.8 136.2C43.7 120.3 87.3 88.7 131 83.2C174.7 77.7 218.3 98.3 262 111.3C305.7 124.3 349.3 129.7 393 119.3C436.7 109 480.3 83 524 72.8C567.7 62.7 611.3 68.3 654.8 83.3C698.3 98.3 741.7 122.7 785.2 119.8C828.7 117 872.3 87 916 85C959.7 83 1003.3 109 1047 119.3C1090.7 129.7 1134.3 124.3 1178 122.5C1221.7 120.7 1265.3 122.3 1309 125C1352.7 127.7 1396.3 131.3 1418.2 133.2L1440 135L1440 0L1418.2 0C1396.3 0 1352.7 0 1309 0C1265.3 0 1221.7 0 1178 0C1134.3 0 1090.7 0 1047 0C1003.3 0 959.7 0 916 0C872.3 0 828.7 0 785.2 0C741.7 0 698.3 0 654.8 0C611.3 0 567.7 0 524 0C480.3 0 436.7 0 393 0C349.3 0 305.7 0 262 0C218.3 0 174.7 0 131 0C87.3 0 43.7 0 21.8 0L0 0Z" fill="#e3e2b6"></path><path d="M0 225L21.8 211C43.7 197 87.3 169 131 159.7C174.7 150.3 218.3 159.7 262 165.3C305.7 171 349.3 173 393 160C436.7 147 480.3 119 524 108.7C567.7 98.3 611.3 105.7 654.8 125.2C698.3 144.7 741.7 176.3 785.2 182.8C828.7 189.3 872.3 170.7 916 167C959.7 163.3 1003.3 174.7 1047 182.2C1090.7 189.7 1134.3 193.3 1178 198.8C1221.7 204.3 1265.3 211.7 1309 211.7C1352.7 211.7 1396.3 204.3 1418.2 200.7L1440 197L1440 133L1418.2 131.2C1396.3 129.3 1352.7 125.7 1309 123C1265.3 120.3 1221.7 118.7 1178 120.5C1134.3 122.3 1090.7 127.7 1047 117.3C1003.3 107 959.7 81 916 83C872.3 85 828.7 115 785.2 117.8C741.7 120.7 698.3 96.3 654.8 81.3C611.3 66.3 567.7 60.7 524 70.8C480.3 81 436.7 107 393 117.3C349.3 127.7 305.7 122.3 262 109.3C218.3 96.3 174.7 75.7 131 81.2C87.3 86.7 43.7 118.3 21.8 134.2L0 150Z" fill="#dddba5"></path><path d="M0 275L21.8 268.5C43.7 262 87.3 249 131 243.5C174.7 238 218.3 240 262 243.8C305.7 247.7 349.3 253.3 393 236.5C436.7 219.7 480.3 180.3 524 175.7C567.7 171 611.3 201 654.8 225.3C698.3 249.7 741.7 268.3 785.2 272C828.7 275.7 872.3 264.3 916 256.8C959.7 249.3 1003.3 245.7 1047 251.3C1090.7 257 1134.3 272 1178 276.7C1221.7 281.3 1265.3 275.7 1309 278.3C1352.7 281 1396.3 292 1418.2 297.5L1440 303L1440 195L1418.2 198.7C1396.3 202.3 1352.7 209.7 1309 209.7C1265.3 209.7 1221.7 202.3 1178 196.8C1134.3 191.3 1090.7 187.7 1047 180.2C1003.3 172.7 959.7 161.3 916 165C872.3 168.7 828.7 187.3 785.2 180.8C741.7 174.3 698.3 142.7 654.8 123.2C611.3 103.7 567.7 96.3 524 106.7C480.3 117 436.7 145 393 158C349.3 171 305.7 169 262 163.3C218.3 157.7 174.7 148.3 131 157.7C87.3 167 43.7 195 21.8 209L0 223Z" fill="#d6d595"></path><path d="M0 443L21.8 447.7C43.7 452.3 87.3 461.7 131 460.8C174.7 460 218.3 449 262 429.5C305.7 410 349.3 382 393 378.2C436.7 374.3 480.3 394.7 524 404C567.7 413.3 611.3 411.7 654.8 402.3C698.3 393 741.7 376 785.2 383.5C828.7 391 872.3 423 916 438C959.7 453 1003.3 451 1047 441.7C1090.7 432.3 1134.3 415.7 1178 410C1221.7 404.3 1265.3 409.7 1309 412.3C1352.7 415 1396.3 415 1418.2 415L1440 415L1440 301L1418.2 295.5C1396.3 290 1352.7 279 1309 276.3C1265.3 273.7 1221.7 279.3 1178 274.7C1134.3 270 1090.7 255 1047 249.3C1003.3 243.7 959.7 247.3 916 254.8C872.3 262.3 828.7 273.7 785.2 270C741.7 266.3 698.3 247.7 654.8 223.3C611.3 199 567.7 169 524 173.7C480.3 178.3 436.7 217.7 393 234.5C349.3 251.3 305.7 245.7 262 241.8C218.3 238 174.7 236 131 241.5C87.3 247 43.7 260 21.8 266.5L0 273Z" fill="#c8c784"></path><path d="M0 561L21.8 561C43.7 561 87.3 561 131 561C174.7 561 218.3 561 262 561C305.7 561 349.3 561 393 561C436.7 561 480.3 561 524 561C567.7 561 611.3 561 654.8 561C698.3 561 741.7 561 785.2 561C828.7 561 872.3 561 916 561C959.7 561 1003.3 561 1047 561C1090.7 561 1134.3 561 1178 561C1221.7 561 1265.3 561 1309 561C1352.7 561 1396.3 561 1418.2 561L1440 561L1440 413L1418.2 413C1396.3 413 1352.7 413 1309 410.3C1265.3 407.7 1221.7 402.3 1178 408C1134.3 413.7 1090.7 430.3 1047 439.7C1003.3 449 959.7 451 916 436C872.3 421 828.7 389 785.2 381.5C741.7 374 698.3 391 654.8 400.3C611.3 409.7 567.7 411.3 524 402C480.3 392.7 436.7 372.3 393 376.2C349.3 380 305.7 408 262 427.5C218.3 447 174.7 458 131 458.8C87.3 459.7 43.7 450.3 21.8 445.7L0 441Z" fill="#bab974"></path></svg>